<svg xmlns="http://www.w3.org/2000/svg" xmlns:xlink="http://www.w3.org/1999/xlink" width="189" zoomAndPan="magnify" viewBox="0 0 141.75 141.750002" height="189" preserveAspectRatio="xMidYMid meet" version="1.0"><defs><clipPath id="d78134f3e2"><path d="M 6 23 L 141.5 23 L 141.5 126 L 6 126 Z M 6 23 " clip-rule="nonzero"/></clipPath><clipPath id="e0a0c22326"><path d="M 80.171875 45.703125 L 111.898438 45.703125 L 111.898438 52.011719 L 80.171875 52.011719 Z M 80.171875 45.703125 " clip-rule="nonzero"/></clipPath><clipPath id="057e8ad62f"><path d="M 0.171875 0.703125 L 31.898438 0.703125 L 31.898438 7.011719 L 0.171875 7.011719 Z M 0.171875 0.703125 " clip-rule="nonzero"/></clipPath><clipPath id="a2a81b16e8"><rect x="0" width="32" y="0" height="8"/></clipPath><clipPath id="de77fdb47b"><path d="M 1.007812 12 L 126 12 L 126 97 L 1.007812 97 Z M 1.007812 12 " clip-rule="nonzero"/></clipPath><clipPath id="d1ed9c4d24"><path d="M 1.007812 26 L 126 26 L 126 30 L 1.007812 30 Z M 1.007812 26 " clip-rule="nonzero"/></clipPath><clipPath id="fc964efdd0"><path d="M 57 0.238281 L 69 0.238281 L 69 20 L 57 20 Z M 57 0.238281 " clip-rule="nonzero"/></clipPath><clipPath id="ab1edef524"><path d="M 82 49 L 135.5 49 L 135.5 102.160156 L 82 102.160156 Z M 82 49 " clip-rule="nonzero"/></clipPath><clipPath id="02eef9e142"><path d="M 21 0.238281 L 33 0.238281 L 33 20 L 21 20 Z M 21 0.238281 " clip-rule="nonzero"/></clipPath><clipPath id="f05400ad22"><path d="M 100 0.238281 L 111 0.238281 L 111 20 L 100 20 Z M 100 0.238281 " clip-rule="nonzero"/></clipPath><clipPath id="c07251100c"><rect x="0" width="136" y="0" height="103"/></clipPath></defs><g clip-path="url(#d78134f3e2)"><g transform="matrix(1, 0, 0, 1, 6, 23)"><g clip-path="url(#c07251100c)"><g clip-path="url(#e0a0c22326)"><g transform="matrix(1, 0, 0, 1, 80, 45)"><g clip-path="url(#a2a81b16e8)"><g clip-path="url(#057e8ad62f)"><path fill="#ff66c4" d="M 0.171875 7.011719 L 0.171875 0.703125 L 31.910156 0.703125 L 31.910156 7.011719 Z M 0.171875 7.011719 " fill-opacity="1" fill-rule="nonzero"/></g></g></g></g><path fill="#32bfb6" d="M 30.691406 7.277344 C 30.691406 4.339844 26.277344 4.410156 26.277344 7.277344 L 26.277344 15.734375 C 26.277344 18.699219 30.691406 18.585938 30.691406 15.734375 Z M 30.691406 7.277344 " fill-opacity="1" fill-rule="evenodd"/><path fill="#32bfb6" d="M 64.582031 5.070312 C 63.976562 5.070312 63.425781 5.320312 63.023438 5.71875 C 62.625 6.121094 62.375 6.671875 62.375 7.277344 L 62.375 15.734375 C 62.375 16.339844 62.625 16.890625 63.023438 17.292969 C 63.425781 17.691406 63.976562 17.941406 64.582031 17.941406 C 65.1875 17.941406 65.738281 17.691406 66.140625 17.292969 C 66.539062 16.890625 66.789062 16.339844 66.789062 15.734375 L 66.789062 7.277344 C 66.789062 6.671875 66.539062 6.121094 66.140625 5.71875 C 65.738281 5.320312 65.1875 5.070312 64.582031 5.070312 Z M 64.582031 5.070312 " fill-opacity="1" fill-rule="evenodd"/><path fill="#32bfb6" d="M 104.539062 7.277344 L 104.539062 15.734375 C 104.539062 16.339844 104.789062 16.890625 105.1875 17.292969 C 105.589844 17.691406 106.140625 17.941406 106.746094 17.941406 C 107.351562 17.941406 107.902344 17.691406 108.304688 17.292969 C 108.703125 16.890625 108.953125 16.339844 108.953125 15.734375 L 108.953125 7.277344 C 108.953125 6.671875 108.703125 6.121094 108.304688 5.71875 C 107.902344 5.320312 107.351562 5.070312 106.746094 5.070312 C 106.140625 5.070312 105.589844 5.320312 105.1875 5.71875 C 104.789062 6.121094 104.539062 6.671875 104.539062 7.277344 Z M 104.539062 7.277344 " fill-opacity="1" fill-rule="evenodd"/><path fill="#32bfb6" d="M 110.492188 53.863281 C 97.703125 53.863281 87.332031 64.230469 87.332031 77.023438 C 87.332031 89.816406 97.703125 100.183594 110.492188 100.183594 C 116.890625 100.183594 122.679688 97.59375 126.871094 93.402344 C 131.0625 89.210938 133.65625 83.417969 133.65625 77.023438 C 133.65625 70.628906 131.0625 64.835938 126.871094 60.644531 C 122.679688 56.453125 116.890625 53.863281 110.492188 53.863281 Z M 111.019531 75.265625 L 122.242188 72.355469 C 123.082031 72.136719 123.941406 72.640625 124.160156 73.480469 C 124.375 74.320312 123.871094 75.179688 123.03125 75.394531 L 111.015625 78.511719 C 110.4375 78.714844 109.769531 78.566406 109.328125 78.085938 L 109.332031 78.082031 L 99.886719 67.738281 C 99.300781 67.09375 99.347656 66.097656 99.988281 65.515625 C 100.632812 64.929688 101.628906 64.976562 102.210938 65.621094 Z M 111.019531 75.265625 " fill-opacity="1" fill-rule="evenodd"/><path fill="#32bfb6" d="M 66.117188 45.164062 L 77.660156 45.164062 L 77.660156 52.808594 L 66.117188 52.808594 Z M 66.117188 45.164062 " fill-opacity="1" fill-rule="evenodd"/><path fill="#32bfb6" d="M 66.117188 55.960938 L 77.660156 55.960938 L 77.660156 63.601562 L 66.117188 63.601562 Z M 66.117188 55.960938 " fill-opacity="1" fill-rule="evenodd"/><path fill="#32bfb6" d="M 66.117188 66.753906 L 77.660156 66.753906 L 77.660156 74.398438 L 66.117188 74.398438 Z M 66.117188 66.753906 " fill-opacity="1" fill-rule="evenodd"/><path fill="#32bfb6" d="M 51.425781 66.753906 L 62.964844 66.753906 L 62.964844 74.398438 L 51.425781 74.398438 Z M 51.425781 66.753906 " fill-opacity="1" fill-rule="evenodd"/><path fill="#32bfb6" d="M 51.425781 55.960938 L 62.964844 55.960938 L 62.964844 63.601562 L 51.425781 63.601562 Z M 51.425781 55.960938 " fill-opacity="1" fill-rule="evenodd"/><path fill="#32bfb6" d="M 51.425781 45.164062 L 62.964844 45.164062 L 62.964844 52.808594 L 51.425781 52.808594 Z M 51.425781 45.164062 " fill-opacity="1" fill-rule="evenodd"/><path fill="#32bfb6" d="M 36.730469 45.164062 L 48.273438 45.164062 L 48.273438 52.808594 L 36.730469 52.808594 Z M 36.730469 45.164062 " fill-opacity="1" fill-rule="evenodd"/><path fill="#32bfb6" d="M 36.730469 55.960938 L 48.273438 55.960938 L 48.273438 63.601562 L 36.730469 63.601562 Z M 36.730469 55.960938 " fill-opacity="1" fill-rule="evenodd"/><path fill="#32bfb6" d="M 36.730469 66.753906 L 48.273438 66.753906 L 48.273438 74.398438 L 36.730469 74.398438 Z M 36.730469 66.753906 " fill-opacity="1" fill-rule="evenodd"/><path fill="#32bfb6" d="M 22.039062 66.753906 L 33.578125 66.753906 L 33.578125 74.398438 L 22.039062 74.398438 Z M 22.039062 66.753906 " fill-opacity="1" fill-rule="evenodd"/><path fill="#32bfb6" d="M 22.039062 55.960938 L 33.578125 55.960938 L 33.578125 63.601562 L 22.039062 63.601562 Z M 22.039062 55.960938 " fill-opacity="1" fill-rule="evenodd"/><path fill="#32bfb6" d="M 22.039062 45.164062 L 33.578125 45.164062 L 33.578125 52.808594 L 22.039062 52.808594 Z M 22.039062 45.164062 " fill-opacity="1" fill-rule="evenodd"/><g clip-path="url(#de77fdb47b)"><path fill="#000000" d="M 34.515625 12.515625 C 33.648438 12.515625 32.941406 13.222656 32.941406 14.089844 C 32.941406 14.960938 33.648438 15.667969 34.515625 15.667969 L 55.355469 15.667969 C 56.226562 15.667969 56.933594 14.960938 56.933594 14.089844 C 56.933594 13.222656 56.226562 12.515625 55.355469 12.515625 Z M 71.550781 12.515625 C 70.679688 12.515625 69.972656 13.222656 69.972656 14.089844 C 69.972656 14.960938 70.679688 15.667969 71.550781 15.667969 L 98.238281 15.667969 C 99.105469 15.667969 99.8125 14.960938 99.8125 14.089844 C 99.8125 13.222656 99.105469 12.515625 98.238281 12.515625 Z M 115.925781 12.515625 C 115.058594 12.515625 114.351562 13.222656 114.351562 14.089844 C 114.351562 14.960938 115.058594 15.667969 115.925781 15.667969 C 117.800781 15.667969 119.507812 16.433594 120.742188 17.671875 C 121.980469 18.90625 122.746094 20.613281 122.746094 22.488281 L 122.746094 50.75 C 122.746094 51.621094 123.453125 52.328125 124.324219 52.328125 C 125.195312 52.328125 125.898438 51.621094 125.898438 50.75 L 125.898438 22.488281 C 125.898438 19.742188 124.777344 17.25 122.972656 15.441406 C 121.164062 13.636719 118.671875 12.515625 115.925781 12.515625 Z M 84.039062 96.027344 C 84.90625 96.027344 85.613281 95.320312 85.613281 94.453125 C 85.613281 93.582031 84.90625 92.875 84.039062 92.875 L 10.980469 92.875 C 9.105469 92.875 7.402344 92.109375 6.164062 90.871094 C 4.925781 89.632812 4.160156 87.929688 4.160156 86.054688 L 4.160156 22.488281 C 4.160156 20.613281 4.925781 18.90625 6.164062 17.671875 C 7.402344 16.433594 9.105469 15.667969 10.980469 15.667969 L 18.625 15.667969 C 19.496094 15.667969 20.203125 14.960938 20.203125 14.089844 C 20.203125 13.222656 19.496094 12.515625 18.625 12.515625 L 10.980469 12.515625 C 8.234375 12.515625 5.742188 13.636719 3.933594 15.441406 C 2.128906 17.25 1.007812 19.742188 1.007812 22.488281 L 1.007812 86.054688 C 1.007812 88.800781 2.128906 91.292969 3.933594 93.101562 C 5.742188 94.90625 8.234375 96.027344 10.980469 96.027344 Z M 84.039062 96.027344 " fill-opacity="1" fill-rule="nonzero"/></g><g clip-path="url(#d1ed9c4d24)"><path fill="#000000" d="M 2.582031 26.007812 C 1.714844 26.007812 1.007812 26.714844 1.007812 27.585938 C 1.007812 28.453125 1.714844 29.160156 2.582031 29.160156 L 124.324219 29.160156 C 125.195312 29.160156 125.898438 28.453125 125.898438 27.585938 C 125.898438 26.714844 125.195312 26.007812 124.324219 26.007812 Z M 2.582031 26.007812 " fill-opacity="1" fill-rule="nonzero"/></g><g clip-path="url(#fc964efdd0)"><path fill="#000000" d="M 63.269531 0.605469 C 64.742188 0.605469 66.085938 1.207031 67.054688 2.179688 C 68.023438 3.148438 68.628906 4.488281 68.628906 5.964844 L 68.628906 14.421875 C 68.628906 15.898438 68.023438 17.238281 67.054688 18.207031 C 66.085938 19.179688 64.742188 19.78125 63.269531 19.78125 C 61.792969 19.78125 60.453125 19.179688 59.480469 18.207031 C 58.511719 17.238281 57.910156 15.898438 57.910156 14.421875 L 57.910156 5.964844 C 57.910156 4.488281 58.511719 3.148438 59.480469 2.179688 C 60.453125 1.207031 61.792969 0.605469 63.269531 0.605469 Z M 63.269531 3.757812 C 62.664062 3.757812 62.109375 4.007812 61.710938 4.40625 C 61.308594 4.808594 61.0625 5.359375 61.0625 5.964844 L 61.0625 14.421875 C 61.0625 15.027344 61.308594 15.578125 61.710938 15.980469 C 62.109375 16.378906 62.664062 16.628906 63.269531 16.628906 C 63.875 16.628906 64.425781 16.378906 64.824219 15.980469 C 65.226562 15.578125 65.476562 15.027344 65.476562 14.421875 L 65.476562 5.964844 C 65.476562 5.359375 65.226562 4.808594 64.824219 4.40625 C 64.425781 4.007812 63.875 3.757812 63.269531 3.757812 Z M 63.269531 3.757812 " fill-opacity="1" fill-rule="nonzero"/></g><path fill="#000000" d="M 20.726562 34.480469 C 20.726562 33.609375 20.019531 32.90625 19.148438 32.90625 C 18.277344 32.90625 17.574219 33.609375 17.574219 34.480469 L 17.574219 83.65625 C 17.574219 84.527344 18.277344 85.230469 19.148438 85.230469 C 20.019531 85.230469 20.726562 84.527344 20.726562 83.65625 Z M 20.726562 34.480469 " fill-opacity="1" fill-rule="nonzero"/><path fill="#000000" d="M 35.417969 34.480469 C 35.417969 33.609375 34.710938 32.90625 33.84375 32.90625 C 32.972656 32.90625 32.265625 33.609375 32.265625 34.480469 L 32.265625 83.65625 C 32.265625 84.527344 32.972656 85.230469 33.84375 85.230469 C 34.710938 85.230469 35.417969 84.527344 35.417969 83.65625 Z M 35.417969 34.480469 " fill-opacity="1" fill-rule="nonzero"/><path fill="#000000" d="M 50.109375 34.480469 C 50.109375 33.609375 49.40625 32.90625 48.535156 32.90625 C 47.664062 32.90625 46.960938 33.609375 46.960938 34.480469 L 46.960938 83.65625 C 46.960938 84.527344 47.664062 85.230469 48.535156 85.230469 C 49.40625 85.230469 50.109375 84.527344 50.109375 83.65625 Z M 50.109375 34.480469 " fill-opacity="1" fill-rule="nonzero"/><path fill="#000000" d="M 64.804688 34.480469 C 64.804688 33.609375 64.097656 32.90625 63.226562 32.90625 C 62.359375 32.90625 61.652344 33.609375 61.652344 34.480469 L 61.652344 83.65625 C 61.652344 84.527344 62.359375 85.230469 63.226562 85.230469 C 64.097656 85.230469 64.804688 84.527344 64.804688 83.65625 Z M 64.804688 34.480469 " fill-opacity="1" fill-rule="nonzero"/><path fill="#000000" d="M 79.496094 34.480469 C 79.496094 33.609375 78.792969 32.90625 77.921875 32.90625 C 77.050781 32.90625 76.34375 33.609375 76.34375 34.480469 L 76.34375 83.65625 C 76.34375 84.527344 77.050781 85.230469 77.921875 85.230469 C 78.792969 85.230469 79.496094 84.527344 79.496094 83.65625 Z M 79.496094 34.480469 " fill-opacity="1" fill-rule="nonzero"/><path fill="#000000" d="M 94.191406 34.480469 C 94.191406 33.609375 93.484375 32.90625 92.613281 32.90625 C 91.742188 32.90625 91.039062 33.609375 91.039062 34.480469 L 91.039062 50.074219 C 91.039062 50.941406 91.742188 51.648438 92.613281 51.648438 C 93.484375 51.648438 94.191406 50.941406 94.191406 50.074219 Z M 94.191406 34.480469 " fill-opacity="1" fill-rule="nonzero"/><path fill="#000000" d="M 108.882812 34.480469 C 108.882812 33.609375 108.175781 32.90625 107.308594 32.90625 C 106.4375 32.90625 105.730469 33.609375 105.730469 34.480469 L 105.730469 45.875 C 105.730469 46.746094 106.4375 47.449219 107.308594 47.449219 C 108.175781 47.449219 108.882812 46.746094 108.882812 45.875 Z M 108.882812 34.480469 " fill-opacity="1" fill-rule="nonzero"/><path fill="#000000" d="M 10.453125 40.699219 C 9.582031 40.699219 8.878906 41.40625 8.878906 42.277344 C 8.878906 43.148438 9.582031 43.851562 10.453125 43.851562 L 115.101562 43.851562 C 115.972656 43.851562 116.679688 43.148438 116.679688 42.277344 C 116.679688 41.40625 115.972656 40.699219 115.101562 40.699219 Z M 10.453125 40.699219 " fill-opacity="1" fill-rule="nonzero"/><path fill="#000000" d="M 10.902344 51.496094 C 10.035156 51.496094 9.328125 52.199219 9.328125 53.070312 C 9.328125 53.941406 10.035156 54.648438 10.902344 54.648438 L 89.164062 54.648438 C 90.035156 54.648438 90.742188 53.941406 90.742188 53.070312 C 90.742188 52.199219 90.035156 51.496094 89.164062 51.496094 Z M 10.902344 51.496094 " fill-opacity="1" fill-rule="nonzero"/><path fill="#000000" d="M 11.355469 62.289062 C 10.484375 62.289062 9.777344 62.996094 9.777344 63.867188 C 9.777344 64.734375 10.484375 65.441406 11.355469 65.441406 L 81.519531 65.441406 C 82.390625 65.441406 83.09375 64.734375 83.09375 63.867188 C 83.09375 62.996094 82.390625 62.289062 81.519531 62.289062 Z M 11.355469 62.289062 " fill-opacity="1" fill-rule="nonzero"/><path fill="#000000" d="M 11.804688 73.085938 C 10.933594 73.085938 10.226562 73.789062 10.226562 74.660156 C 10.226562 75.53125 10.933594 76.238281 11.804688 76.238281 L 77.921875 76.238281 C 78.792969 76.238281 79.496094 75.53125 79.496094 74.660156 C 79.496094 73.789062 78.792969 73.085938 77.921875 73.085938 Z M 11.804688 73.085938 " fill-opacity="1" fill-rule="nonzero"/><g clip-path="url(#ab1edef524)"><path fill="#000000" d="M 109.179688 49.394531 C 116.445312 49.394531 123.027344 52.34375 127.789062 57.101562 C 132.546875 61.863281 135.496094 68.445312 135.496094 75.710938 C 135.496094 82.976562 132.546875 89.554688 127.785156 94.316406 C 123.027344 99.078125 116.445312 102.023438 109.179688 102.023438 C 94.648438 102.023438 82.867188 90.242188 82.867188 75.710938 C 82.867188 61.175781 94.648438 49.394531 109.179688 49.394531 Z M 125.558594 59.332031 C 121.367188 55.140625 115.578125 52.546875 109.179688 52.546875 C 96.390625 52.546875 86.019531 62.917969 86.019531 75.710938 C 86.019531 88.5 96.390625 98.871094 109.179688 98.871094 C 115.578125 98.871094 121.367188 96.277344 125.558594 92.085938 C 129.75 87.898438 132.34375 82.105469 132.34375 75.710938 C 132.34375 69.3125 129.75 63.523438 125.558594 59.332031 Z M 125.558594 59.332031 " fill-opacity="1" fill-rule="nonzero"/></g><path fill="#000000" d="M 100.898438 64.304688 C 100.3125 63.664062 99.320312 63.617188 98.675781 64.203125 C 98.035156 64.785156 97.988281 65.78125 98.570312 66.425781 L 108.015625 76.769531 L 108.015625 76.773438 C 108.457031 77.253906 109.125 77.398438 109.703125 77.195312 L 121.71875 74.082031 C 122.558594 73.863281 123.0625 73.007812 122.84375 72.167969 C 122.628906 71.328125 121.769531 70.824219 120.929688 71.042969 L 109.707031 73.953125 Z M 100.898438 64.304688 " fill-opacity="1" fill-rule="nonzero"/><g clip-path="url(#02eef9e142)"><path fill="#000000" d="M 32.53125 5.964844 L 32.53125 14.421875 C 32.53125 21.273438 21.8125 21.632812 21.8125 14.421875 L 21.8125 5.964844 C 21.8125 -0.984375 32.53125 -1.167969 32.53125 5.964844 Z M 24.964844 5.964844 L 24.964844 14.421875 C 24.964844 17.382812 29.378906 17.269531 29.378906 14.421875 L 29.378906 5.964844 C 29.378906 3.027344 24.964844 3.097656 24.964844 5.964844 Z M 24.964844 5.964844 " fill-opacity="1" fill-rule="nonzero"/></g><g clip-path="url(#f05400ad22)"><path fill="#000000" d="M 105.433594 0.605469 C 106.910156 0.605469 108.25 1.207031 109.21875 2.179688 C 110.1875 3.148438 110.792969 4.488281 110.792969 5.964844 L 110.792969 14.421875 C 110.792969 15.898438 110.1875 17.238281 109.21875 18.207031 C 108.25 19.179688 106.910156 19.78125 105.433594 19.78125 C 103.957031 19.78125 102.617188 19.179688 101.644531 18.207031 C 100.675781 17.238281 100.074219 15.898438 100.074219 14.421875 L 100.074219 5.964844 C 100.074219 4.488281 100.675781 3.148438 101.644531 2.179688 C 102.617188 1.207031 103.957031 0.605469 105.433594 0.605469 Z M 105.433594 3.757812 C 104.828125 3.757812 104.277344 4.007812 103.875 4.40625 C 103.472656 4.808594 103.226562 5.359375 103.226562 5.964844 L 103.226562 14.421875 C 103.226562 15.027344 103.472656 15.578125 103.875 15.980469 C 104.277344 16.378906 104.828125 16.628906 105.433594 16.628906 C 106.039062 16.628906 106.589844 16.378906 106.992188 15.980469 C 107.390625 15.578125 107.640625 15.027344 107.640625 14.421875 L 107.640625 5.964844 C 107.640625 5.359375 107.390625 4.808594 106.992188 4.40625 C 106.589844 4.007812 106.039062 3.757812 105.433594 3.757812 Z M 105.433594 3.757812 " fill-opacity="1" fill-rule="nonzero"/></g></g></g></g></svg>