<svg xmlns="http://www.w3.org/2000/svg" xmlns:xlink="http://www.w3.org/1999/xlink" width="189" zoomAndPan="magnify" viewBox="0 0 141.75 141.750002" height="189" preserveAspectRatio="xMidYMid meet" version="1.0"><defs><clipPath id="e161a8c8f0"><path d="M 20.214844 72.042969 L 27.679688 72.042969 L 27.679688 79.503906 L 20.214844 79.503906 Z M 20.214844 72.042969 " clip-rule="nonzero"/></clipPath><clipPath id="0ca46210e5"><path d="M 23.945312 72.042969 C 21.886719 72.042969 20.214844 73.710938 20.214844 75.773438 C 20.214844 77.835938 21.886719 79.503906 23.945312 79.503906 C 26.007812 79.503906 27.679688 77.835938 27.679688 75.773438 C 27.679688 73.710938 26.007812 72.042969 23.945312 72.042969 Z M 23.945312 72.042969 " clip-rule="nonzero"/></clipPath><clipPath id="be154ee117"><path d="M 0.214844 0.0429688 L 7.679688 0.0429688 L 7.679688 7.503906 L 0.214844 7.503906 Z M 0.214844 0.0429688 " clip-rule="nonzero"/></clipPath><clipPath id="9f2236d205"><path d="M 3.945312 0.0429688 C 1.886719 0.0429688 0.214844 1.710938 0.214844 3.773438 C 0.214844 5.835938 1.886719 7.503906 3.945312 7.503906 C 6.007812 7.503906 7.679688 5.835938 7.679688 3.773438 C 7.679688 1.710938 6.007812 0.0429688 3.945312 0.0429688 Z M 3.945312 0.0429688 " clip-rule="nonzero"/></clipPath><clipPath id="420925a095"><rect x="0" width="8" y="0" height="8"/></clipPath><clipPath id="9086413dbd"><path d="M 20.214844 103.449219 L 27.679688 103.449219 L 27.679688 110.910156 L 20.214844 110.910156 Z M 20.214844 103.449219 " clip-rule="nonzero"/></clipPath><clipPath id="6b05918103"><path d="M 23.945312 103.449219 C 21.886719 103.449219 20.214844 105.117188 20.214844 107.179688 C 20.214844 109.242188 21.886719 110.910156 23.945312 110.910156 C 26.007812 110.910156 27.679688 109.242188 27.679688 107.179688 C 27.679688 105.117188 26.007812 103.449219 23.945312 103.449219 Z M 23.945312 103.449219 " clip-rule="nonzero"/></clipPath><clipPath id="b2831499f9"><path d="M 0.214844 0.449219 L 7.679688 0.449219 L 7.679688 7.910156 L 0.214844 7.910156 Z M 0.214844 0.449219 " clip-rule="nonzero"/></clipPath><clipPath id="452f9c7d27"><path d="M 3.945312 0.449219 C 1.886719 0.449219 0.214844 2.117188 0.214844 4.179688 C 0.214844 6.242188 1.886719 7.910156 3.945312 7.910156 C 6.007812 7.910156 7.679688 6.242188 7.679688 4.179688 C 7.679688 2.117188 6.007812 0.449219 3.945312 0.449219 Z M 3.945312 0.449219 " clip-rule="nonzero"/></clipPath><clipPath id="339e95fcfc"><rect x="0" width="8" y="0" height="8"/></clipPath><clipPath id="679b01201a"><path d="M 16 10 L 104.445312 10 L 104.445312 133 L 16 133 Z M 16 10 " clip-rule="nonzero"/></clipPath><clipPath id="42c24cfd7b"><path d="M 1.117188 0.929688 L 98 0.929688 L 98 134.210938 L 1.117188 134.210938 Z M 1.117188 0.929688 " clip-rule="nonzero"/></clipPath><clipPath id="b81ecd0658"><rect x="0" width="105" y="0" height="135"/></clipPath></defs><g transform="matrix(1, 0, 0, 1, 18, 3)"><g clip-path="url(#b81ecd0658)"><g clip-path="url(#e161a8c8f0)"><g clip-path="url(#0ca46210e5)"><g transform="matrix(1, 0, 0, 1, 20, 72)"><g clip-path="url(#420925a095)"><g clip-path="url(#be154ee117)"><g clip-path="url(#9f2236d205)"><path fill="#c1ff72" d="M 0.214844 0.0429688 L 7.679688 0.0429688 L 7.679688 7.503906 L 0.214844 7.503906 Z M 0.214844 0.0429688 " fill-opacity="1" fill-rule="nonzero"/></g></g></g></g></g></g><g clip-path="url(#9086413dbd)"><g clip-path="url(#6b05918103)"><g transform="matrix(1, 0, 0, 1, 20, 103)"><g clip-path="url(#339e95fcfc)"><g clip-path="url(#b2831499f9)"><g clip-path="url(#452f9c7d27)"><path fill="#ff66c4" d="M 0.214844 0.449219 L 7.679688 0.449219 L 7.679688 7.910156 L 0.214844 7.910156 Z M 0.214844 0.449219 " fill-opacity="1" fill-rule="nonzero"/></g></g></g></g></g></g><g clip-path="url(#679b01201a)"><path fill="#32bfb6" d="M 104.363281 15.296875 L 104.363281 128.414062 C 104.363281 130.878906 102.367188 132.875 99.902344 132.875 L 95.582031 132.875 L 95.582031 10.835938 L 99.902344 10.835938 C 102.367188 10.835938 104.363281 12.832031 104.363281 15.296875 Z M 29.113281 37.542969 L 22.292969 44.363281 L 19.234375 41.304688 C 18.539062 40.605469 17.40625 40.605469 16.710938 41.304688 C 16.015625 42 16.015625 43.128906 16.710938 43.828125 L 21.03125 48.148438 C 21.378906 48.496094 21.835938 48.671875 22.292969 48.671875 C 22.75 48.671875 23.207031 48.496094 23.554688 48.148438 L 31.636719 40.066406 C 32.332031 39.371094 32.332031 38.242188 31.636719 37.542969 C 30.941406 36.847656 29.8125 36.847656 29.113281 37.542969 Z M 29.113281 37.542969 " fill-opacity="1" fill-rule="nonzero"/></g><g clip-path="url(#42c24cfd7b)"><path fill="#000000" d="M 91.410156 9.167969 L 58.949219 9.167969 C 58.152344 4.496094 54.078125 0.929688 49.183594 0.929688 C 44.289062 0.929688 40.210938 4.496094 39.414062 9.167969 L 6.957031 9.167969 C 3.734375 9.167969 1.117188 11.789062 1.117188 15.007812 L 1.117188 128.703125 C 1.117188 131.925781 3.734375 134.542969 6.957031 134.542969 L 91.410156 134.542969 C 94.628906 134.542969 97.25 131.925781 97.25 128.703125 L 97.25 15.007812 C 97.25 11.789062 94.628906 9.167969 91.410156 9.167969 Z M 40.945312 12.503906 C 41.867188 12.503906 42.613281 11.757812 42.613281 10.835938 C 42.613281 7.214844 45.558594 4.265625 49.183594 4.265625 C 52.804688 4.265625 55.753906 7.214844 55.753906 10.835938 C 55.753906 11.757812 56.5 12.503906 57.421875 12.503906 L 66.976562 12.503906 L 66.976562 14.820312 C 66.976562 16.199219 65.851562 17.324219 64.472656 17.324219 L 33.894531 17.324219 C 32.511719 17.324219 31.390625 16.199219 31.390625 14.820312 L 31.390625 12.503906 Z M 93.910156 128.703125 C 93.910156 130.085938 92.789062 131.207031 91.410156 131.207031 L 6.957031 131.207031 C 5.578125 131.207031 4.453125 130.085938 4.453125 128.703125 L 4.453125 15.007812 C 4.453125 13.628906 5.578125 12.503906 6.957031 12.503906 L 28.050781 12.503906 L 28.050781 14.820312 C 28.050781 18.039062 30.671875 20.660156 33.894531 20.660156 L 64.472656 20.660156 C 67.691406 20.660156 70.3125 18.039062 70.3125 14.820312 L 70.3125 12.503906 L 91.410156 12.503906 C 92.789062 12.503906 93.910156 13.628906 93.910156 15.007812 Z M 83.847656 38.859375 C 83.847656 39.78125 83.097656 40.527344 82.175781 40.527344 L 40.945312 40.527344 C 40.023438 40.527344 39.277344 39.78125 39.277344 38.859375 C 39.277344 37.9375 40.023438 37.191406 40.945312 37.191406 L 82.175781 37.191406 C 83.097656 37.191406 83.847656 37.9375 83.847656 38.859375 Z M 39.277344 46.738281 C 39.277344 45.816406 40.023438 45.066406 40.945312 45.066406 L 61.5625 45.066406 C 62.480469 45.066406 63.230469 45.816406 63.230469 46.738281 C 63.230469 47.65625 62.480469 48.40625 61.5625 48.40625 L 40.945312 48.40625 C 40.023438 48.40625 39.277344 47.65625 39.277344 46.738281 Z M 47.285156 10.835938 C 47.285156 9.789062 48.136719 8.941406 49.183594 8.941406 C 50.230469 8.941406 51.078125 9.789062 51.078125 10.835938 C 51.078125 11.882812 50.230469 12.730469 49.183594 12.730469 C 48.136719 12.730469 47.285156 11.882812 47.285156 10.835938 Z M 83.847656 72.128906 C 83.847656 73.050781 83.097656 73.796875 82.175781 73.796875 L 40.945312 73.796875 C 40.023438 73.796875 39.277344 73.050781 39.277344 72.128906 C 39.277344 71.207031 40.023438 70.460938 40.945312 70.460938 L 82.175781 70.460938 C 83.097656 70.460938 83.847656 71.207031 83.847656 72.128906 Z M 39.277344 80.003906 C 39.277344 79.082031 40.023438 78.335938 40.945312 78.335938 L 51.828125 78.335938 C 52.75 78.335938 53.5 79.082031 53.5 80.003906 C 53.5 80.925781 52.75 81.671875 51.828125 81.671875 L 40.945312 81.671875 C 40.023438 81.671875 39.277344 80.925781 39.277344 80.003906 Z M 28.113281 70.507812 L 20.234375 70.507812 C 19.3125 70.507812 18.566406 71.253906 18.566406 72.175781 L 18.566406 80.054688 C 18.566406 80.972656 19.3125 81.722656 20.234375 81.722656 L 28.113281 81.722656 C 29.035156 81.722656 29.78125 80.972656 29.78125 80.054688 L 29.78125 72.175781 C 29.78125 71.253906 29.035156 70.507812 28.113281 70.507812 Z M 26.441406 78.382812 L 21.90625 78.382812 L 21.90625 73.84375 L 26.441406 73.84375 Z M 83.847656 103.511719 C 83.847656 104.429688 83.097656 105.179688 82.175781 105.179688 L 40.945312 105.179688 C 40.023438 105.179688 39.277344 104.429688 39.277344 103.511719 C 39.277344 102.589844 40.023438 101.839844 40.945312 101.839844 L 82.175781 101.839844 C 83.097656 101.839844 83.847656 102.589844 83.847656 103.511719 Z M 53.5 111.386719 C 53.5 112.308594 52.75 113.054688 51.828125 113.054688 L 40.945312 113.054688 C 40.023438 113.054688 39.277344 112.308594 39.277344 111.386719 C 39.277344 110.464844 40.023438 109.71875 40.945312 109.71875 L 51.828125 109.71875 C 52.75 109.71875 53.5 110.464844 53.5 111.386719 Z M 28.113281 101.890625 L 20.234375 101.890625 C 19.3125 101.890625 18.566406 102.636719 18.566406 103.558594 L 18.566406 111.433594 C 18.566406 112.355469 19.3125 113.101562 20.234375 113.101562 L 28.113281 113.101562 C 29.035156 113.101562 29.78125 112.355469 29.78125 111.433594 L 29.78125 103.558594 C 29.78125 102.636719 29.035156 101.890625 28.113281 101.890625 Z M 26.441406 109.765625 L 21.90625 109.765625 L 21.90625 105.226562 L 26.441406 105.226562 Z M 26.441406 109.765625 " fill-opacity="1" fill-rule="nonzero"/></g></g></g></svg>