<svg xmlns="http://www.w3.org/2000/svg" xmlns:xlink="http://www.w3.org/1999/xlink" width="189" zoomAndPan="magnify" viewBox="0 0 141.75 141.750002" height="189" preserveAspectRatio="xMidYMid meet" version="1.0"><defs><clipPath id="9b988858c5"><path d="M 19.988281 30.972656 L 59.453125 30.972656 L 59.453125 70.441406 L 19.988281 70.441406 Z M 19.988281 30.972656 " clip-rule="nonzero"/></clipPath><clipPath id="9e6fca4372"><path d="M 39.71875 30.972656 C 28.820312 30.972656 19.988281 39.808594 19.988281 50.707031 C 19.988281 61.609375 28.820312 70.441406 39.71875 70.441406 C 50.621094 70.441406 59.453125 61.609375 59.453125 50.707031 C 59.453125 39.808594 50.621094 30.972656 39.71875 30.972656 Z M 39.71875 30.972656 " clip-rule="nonzero"/></clipPath><clipPath id="36829e3a9c"><path d="M 0.988281 0.972656 L 40.453125 0.972656 L 40.453125 40.441406 L 0.988281 40.441406 Z M 0.988281 0.972656 " clip-rule="nonzero"/></clipPath><clipPath id="4ac33af64d"><path d="M 20.71875 0.972656 C 9.820312 0.972656 0.988281 9.808594 0.988281 20.707031 C 0.988281 31.609375 9.820312 40.441406 20.71875 40.441406 C 31.621094 40.441406 40.453125 31.609375 40.453125 20.707031 C 40.453125 9.808594 31.621094 0.972656 20.71875 0.972656 Z M 20.71875 0.972656 " clip-rule="nonzero"/></clipPath><clipPath id="46e7090de4"><rect x="0" width="41" y="0" height="41"/></clipPath><clipPath id="2e8315057f"><path d="M 14.65625 7.597656 L 85.390625 7.597656 L 85.390625 12.992188 L 14.65625 12.992188 Z M 14.65625 7.597656 " clip-rule="nonzero"/></clipPath><clipPath id="5c7bc7a1fb"><path d="M 0.65625 0.597656 L 71.390625 0.597656 L 71.390625 5.992188 L 0.65625 5.992188 Z M 0.65625 0.597656 " clip-rule="nonzero"/></clipPath><clipPath id="7755853f64"><rect x="0" width="72" y="0" height="6"/></clipPath><clipPath id="a5d333f473"><path d="M 85.390625 2.152344 L 96.285156 2.152344 L 96.285156 13.046875 L 85.390625 13.046875 Z M 85.390625 2.152344 " clip-rule="nonzero"/></clipPath><clipPath id="fba4738d3c"><path d="M 90.839844 2.152344 C 87.828125 2.152344 85.390625 4.589844 85.390625 7.597656 C 85.390625 10.605469 87.828125 13.046875 90.839844 13.046875 C 93.847656 13.046875 96.285156 10.605469 96.285156 7.597656 C 96.285156 4.589844 93.847656 2.152344 90.839844 2.152344 Z M 90.839844 2.152344 " clip-rule="nonzero"/></clipPath><clipPath id="5f743cd44e"><path d="M 0.390625 0.152344 L 11.285156 0.152344 L 11.285156 11.046875 L 0.390625 11.046875 Z M 0.390625 0.152344 " clip-rule="nonzero"/></clipPath><clipPath id="16d8733632"><path d="M 5.839844 0.152344 C 2.828125 0.152344 0.390625 2.589844 0.390625 5.597656 C 0.390625 8.605469 2.828125 11.046875 5.839844 11.046875 C 8.847656 11.046875 11.285156 8.605469 11.285156 5.597656 C 11.285156 2.589844 8.847656 0.152344 5.839844 0.152344 Z M 5.839844 0.152344 " clip-rule="nonzero"/></clipPath><clipPath id="c5bfd06395"><rect x="0" width="12" y="0" height="12"/></clipPath><clipPath id="afeb028bd8"><path d="M 102.015625 2.097656 L 112.910156 2.097656 L 112.910156 12.992188 L 102.015625 12.992188 Z M 102.015625 2.097656 " clip-rule="nonzero"/></clipPath><clipPath id="271593381b"><path d="M 107.460938 2.097656 C 104.453125 2.097656 102.015625 4.535156 102.015625 7.542969 C 102.015625 10.554688 104.453125 12.992188 107.460938 12.992188 C 110.472656 12.992188 112.910156 10.554688 112.910156 7.542969 C 112.910156 4.535156 110.472656 2.097656 107.460938 2.097656 Z M 107.460938 2.097656 " clip-rule="nonzero"/></clipPath><clipPath id="5308acfe8f"><path d="M 0.015625 0.0976562 L 10.910156 0.0976562 L 10.910156 10.992188 L 0.015625 10.992188 Z M 0.015625 0.0976562 " clip-rule="nonzero"/></clipPath><clipPath id="30870faa53"><path d="M 5.460938 0.0976562 C 2.453125 0.0976562 0.015625 2.535156 0.015625 5.542969 C 0.015625 8.554688 2.453125 10.992188 5.460938 10.992188 C 8.472656 10.992188 10.910156 8.554688 10.910156 5.542969 C 10.910156 2.535156 8.472656 0.0976562 5.460938 0.0976562 Z M 5.460938 0.0976562 " clip-rule="nonzero"/></clipPath><clipPath id="2a06576c19"><rect x="0" width="11" y="0" height="11"/></clipPath><clipPath id="db2cc9f4fd"><path d="M 105 7 L 115 7 L 115 22 L 105 22 Z M 105 7 " clip-rule="nonzero"/></clipPath><clipPath id="1b9d57e922"><path d="M 108.535156 7.542969 L 114.421875 9.042969 L 111.1875 21.769531 L 105.300781 20.273438 Z M 108.535156 7.542969 " clip-rule="nonzero"/></clipPath><clipPath id="8a730e1423"><path d="M 0.164062 0.324219 L 9.507812 0.324219 L 9.507812 14.9375 L 0.164062 14.9375 Z M 0.164062 0.324219 " clip-rule="nonzero"/></clipPath><clipPath id="d2b5ed815c"><path d="M 3.535156 0.542969 L 9.421875 2.042969 L 6.1875 14.769531 L 0.300781 13.273438 Z M 3.535156 0.542969 " clip-rule="nonzero"/></clipPath><clipPath id="20fd4582bc"><rect x="0" width="10" y="0" height="15"/></clipPath><clipPath id="ad8b54a9ea"><path d="M 87 7 L 97 7 L 97 22 L 87 22 Z M 87 7 " clip-rule="nonzero"/></clipPath><clipPath id="00d4896e67"><path d="M 90.398438 7.542969 L 96.285156 9.042969 L 93.046875 21.769531 L 87.160156 20.273438 Z M 90.398438 7.542969 " clip-rule="nonzero"/></clipPath><clipPath id="8726b692b8"><path d="M 0 0.324219 L 9.300781 0.324219 L 9.300781 14.9375 L 0 14.9375 Z M 0 0.324219 " clip-rule="nonzero"/></clipPath><clipPath id="4580a79083"><path d="M 3.398438 0.542969 L 9.285156 2.042969 L 6.046875 14.769531 L 0.160156 13.273438 Z M 3.398438 0.542969 " clip-rule="nonzero"/></clipPath><clipPath id="93fb0c05b8"><rect x="0" width="10" y="0" height="15"/></clipPath><clipPath id="20a248adec"><path d="M 1.054688 0.148438 L 128.34375 0.148438 L 128.34375 107.226562 L 1.054688 107.226562 Z M 1.054688 0.148438 " clip-rule="nonzero"/></clipPath><clipPath id="ff7abe0474"><rect x="0" width="130" y="0" height="108"/></clipPath></defs><g transform="matrix(1, 0, 0, 1, 6, 14)"><g clip-path="url(#ff7abe0474)"><g clip-path="url(#9b988858c5)"><g clip-path="url(#9e6fca4372)"><g transform="matrix(1, 0, 0, 1, 19, 30)"><g clip-path="url(#46e7090de4)"><g clip-path="url(#36829e3a9c)"><g clip-path="url(#4ac33af64d)"><path fill="#32bfb6" d="M 0.988281 0.972656 L 40.453125 0.972656 L 40.453125 40.441406 L 0.988281 40.441406 Z M 0.988281 0.972656 " fill-opacity="1" fill-rule="nonzero"/></g></g></g></g></g></g><g clip-path="url(#2e8315057f)"><g transform="matrix(1, 0, 0, 1, 14, 7)"><g clip-path="url(#7755853f64)"><g clip-path="url(#5c7bc7a1fb)"><path fill="#32bfb6" d="M 0.65625 0.597656 L 71.390625 0.597656 L 71.390625 5.992188 L 0.65625 5.992188 Z M 0.65625 0.597656 " fill-opacity="1" fill-rule="nonzero"/></g></g></g></g><g clip-path="url(#a5d333f473)"><g clip-path="url(#fba4738d3c)"><g transform="matrix(1, 0, 0, 1, 85, 2)"><g clip-path="url(#c5bfd06395)"><g clip-path="url(#5f743cd44e)"><g clip-path="url(#16d8733632)"><path fill="#c1ff72" d="M 0.390625 0.152344 L 11.285156 0.152344 L 11.285156 11.046875 L 0.390625 11.046875 Z M 0.390625 0.152344 " fill-opacity="1" fill-rule="nonzero"/></g></g></g></g></g></g><g clip-path="url(#afeb028bd8)"><g clip-path="url(#271593381b)"><g transform="matrix(1, 0, 0, 1, 102, 2)"><g clip-path="url(#2a06576c19)"><g clip-path="url(#5308acfe8f)"><g clip-path="url(#30870faa53)"><path fill="#c1ff72" d="M 0.015625 0.0976562 L 10.910156 0.0976562 L 10.910156 10.992188 L 0.015625 10.992188 Z M 0.015625 0.0976562 " fill-opacity="1" fill-rule="nonzero"/></g></g></g></g></g></g><g clip-path="url(#db2cc9f4fd)"><g clip-path="url(#1b9d57e922)"><g transform="matrix(1, 0, 0, 1, 105, 7)"><g clip-path="url(#20fd4582bc)"><g clip-path="url(#8a730e1423)"><g clip-path="url(#d2b5ed815c)"><path fill="#c1ff72" d="M 3.535156 0.542969 L 9.421875 2.042969 L 6.1875 14.761719 L 0.300781 13.261719 Z M 3.535156 0.542969 " fill-opacity="1" fill-rule="nonzero"/></g></g></g></g></g></g><g clip-path="url(#ad8b54a9ea)"><g clip-path="url(#00d4896e67)"><g transform="matrix(1, 0, 0, 1, 87, 7)"><g clip-path="url(#93fb0c05b8)"><g clip-path="url(#8726b692b8)"><g clip-path="url(#4580a79083)"><path fill="#c1ff72" d="M 3.398438 0.542969 L 9.285156 2.042969 L 6.050781 14.761719 L 0.164062 13.261719 Z M 3.398438 0.542969 " fill-opacity="1" fill-rule="nonzero"/></g></g></g></g></g></g><g clip-path="url(#20a248adec)"><path fill="#000000" d="M 115.847656 11.648438 C 116.691406 5.242188 111.367188 -1.765625 104.71875 0.703125 C 104.210938 0.886719 103.726562 1.125 103.269531 1.417969 C 102.816406 1.710938 102.398438 2.054688 102.019531 2.441406 C 101.640625 2.828125 101.308594 3.253906 101.023438 3.71875 C 100.742188 4.183594 100.511719 4.671875 100.339844 5.1875 C 100.167969 5.703125 100.050781 6.230469 100 6.769531 C 99.945312 7.3125 99.949219 7.851562 100.019531 8.390625 C 100.085938 8.929688 100.210938 9.457031 100.398438 9.964844 C 100.585938 10.476562 100.824219 10.960938 101.117188 11.417969 L 98.664062 11.417969 C 99.390625 5.089844 94.070312 -1.753906 87.527344 0.703125 C 87.015625 0.886719 86.53125 1.125 86.078125 1.421875 C 85.621094 1.714844 85.203125 2.054688 84.824219 2.441406 C 84.445312 2.832031 84.113281 3.257812 83.828125 3.71875 C 83.546875 4.183594 83.316406 4.671875 83.144531 5.1875 C 82.972656 5.703125 82.855469 6.230469 82.804688 6.773438 C 82.75 7.3125 82.753906 7.851562 82.824219 8.390625 C 82.890625 8.929688 83.015625 9.457031 83.203125 9.96875 C 83.390625 10.476562 83.628906 10.960938 83.925781 11.417969 L 16.238281 11.417969 C 15.269531 11.417969 14.3125 11.515625 13.367188 11.703125 C 12.417969 11.894531 11.496094 12.175781 10.605469 12.546875 C 9.710938 12.917969 8.863281 13.375 8.058594 13.914062 C 7.253906 14.453125 6.511719 15.0625 5.828125 15.75 C 5.144531 16.433594 4.535156 17.179688 3.996094 17.988281 C 3.460938 18.792969 3.003906 19.644531 2.632812 20.539062 C 2.265625 21.433594 1.984375 22.359375 1.792969 23.308594 C 1.605469 24.261719 1.511719 25.21875 1.507812 26.191406 L 1.507812 74.207031 C 1.507812 75.023438 1.574219 75.835938 1.707031 76.640625 C 1.839844 77.449219 2.039062 78.238281 2.300781 79.011719 C 2.566406 79.785156 2.890625 80.53125 3.277344 81.25 C 3.667969 81.96875 4.109375 82.652344 4.609375 83.296875 C 5.109375 83.941406 5.660156 84.539062 6.261719 85.09375 C 6.859375 85.648438 7.503906 86.148438 8.183594 86.59375 C 8.867188 87.039062 9.582031 87.425781 10.328125 87.753906 C 11.074219 88.082031 11.84375 88.34375 12.636719 88.542969 C 11.125 95.308594 16.496094 103.230469 23.59375 100.628906 C 23.871094 100.53125 24.140625 100.414062 24.402344 100.277344 C 24.664062 100.144531 24.914062 99.996094 25.160156 99.832031 C 25.402344 99.667969 25.636719 99.488281 25.855469 99.296875 C 26.078125 99.101562 26.289062 98.898438 26.484375 98.679688 C 26.679688 98.460938 26.863281 98.230469 27.03125 97.988281 C 27.203125 97.75 27.355469 97.5 27.492188 97.238281 C 27.632812 96.980469 27.753906 96.710938 27.859375 96.4375 C 27.964844 96.164062 28.054688 95.882812 28.128906 95.597656 C 28.199219 95.3125 28.253906 95.023438 28.289062 94.730469 C 28.328125 94.4375 28.347656 94.144531 28.347656 93.851562 C 28.347656 93.558594 28.332031 93.261719 28.296875 92.972656 C 28.261719 92.679688 28.210938 92.390625 28.140625 92.101562 C 28.070312 91.816406 27.984375 91.535156 27.878906 91.261719 C 27.777344 90.984375 27.65625 90.71875 27.519531 90.457031 C 27.382812 90.195312 27.230469 89.945312 27.0625 89.703125 C 26.898438 89.460938 26.714844 89.230469 26.519531 89.011719 L 29.746094 89.011719 C 28.507812 95.628906 33.894531 103.1875 40.789062 100.628906 C 41.066406 100.53125 41.335938 100.414062 41.597656 100.277344 C 41.859375 100.144531 42.109375 99.996094 42.355469 99.832031 C 42.597656 99.667969 42.828125 99.488281 43.050781 99.296875 C 43.273438 99.101562 43.484375 98.898438 43.679688 98.679688 C 43.875 98.460938 44.058594 98.230469 44.226562 97.988281 C 44.398438 97.75 44.550781 97.5 44.6875 97.238281 C 44.828125 96.980469 44.949219 96.710938 45.054688 96.4375 C 45.160156 96.164062 45.25 95.882812 45.320312 95.597656 C 45.394531 95.3125 45.449219 95.023438 45.484375 94.730469 C 45.523438 94.4375 45.539062 94.144531 45.542969 93.851562 C 45.542969 93.558594 45.527344 93.261719 45.492188 92.972656 C 45.457031 92.679688 45.40625 92.390625 45.335938 92.101562 C 45.265625 91.816406 45.179688 91.535156 45.074219 91.261719 C 44.972656 90.984375 44.851562 90.71875 44.714844 90.457031 C 44.578125 90.195312 44.425781 89.945312 44.257812 89.703125 C 44.089844 89.460938 43.910156 89.230469 43.714844 89.007812 L 50.273438 89.007812 L 64.8125 107.28125 L 79.355469 89.007812 L 113.390625 89.007812 C 114.355469 89.007812 115.316406 88.910156 116.265625 88.71875 C 117.214844 88.527344 118.132812 88.246094 119.027344 87.875 C 119.921875 87.5 120.769531 87.042969 121.574219 86.503906 C 122.378906 85.964844 123.121094 85.347656 123.804688 84.660156 C 124.488281 83.976562 125.101562 83.226562 125.636719 82.421875 C 126.175781 81.613281 126.628906 80.761719 126.996094 79.863281 C 127.367188 78.964844 127.648438 78.042969 127.835938 77.089844 C 128.023438 76.136719 128.117188 75.175781 128.117188 74.207031 L 128.117188 26.191406 C 128.121094 25.324219 128.050781 24.464844 127.902344 23.609375 C 127.753906 22.757812 127.53125 21.925781 127.238281 21.109375 C 126.941406 20.296875 126.578125 19.515625 126.144531 18.765625 C 125.710938 18.015625 125.214844 17.3125 124.65625 16.648438 C 124.101562 15.988281 123.488281 15.382812 122.824219 14.828125 C 122.160156 14.277344 121.449219 13.789062 120.699219 13.359375 C 119.945312 12.933594 119.164062 12.578125 118.347656 12.289062 C 117.535156 12.003906 116.703125 11.789062 115.847656 11.648438 Z M 103.464844 6.597656 C 103.5625 6.277344 103.695312 5.972656 103.863281 5.6875 C 104.03125 5.398438 104.234375 5.136719 104.464844 4.898438 C 104.699219 4.65625 104.957031 4.449219 105.238281 4.273438 C 105.523438 4.097656 105.820312 3.957031 106.136719 3.855469 C 106.453125 3.75 106.777344 3.6875 107.109375 3.660156 C 107.441406 3.636719 107.773438 3.652344 108.101562 3.707031 C 108.429688 3.761719 108.746094 3.855469 109.050781 3.988281 C 109.355469 4.121094 109.644531 4.289062 109.910156 4.488281 C 110.480469 5 110.964844 5.582031 111.371094 6.234375 C 111.773438 6.886719 112.078125 7.582031 112.28125 8.324219 C 112.484375 9.0625 112.578125 9.816406 112.566406 10.585938 C 112.554688 11.351562 112.433594 12.101562 112.203125 12.835938 C 112.207031 13.109375 109.457031 18.9375 109.277344 19.359375 L 106.386719 19.359375 L 109.023438 11.871094 L 107.066406 11.5 C 106.78125 11.472656 106.5 11.414062 106.226562 11.328125 C 105.957031 11.242188 105.695312 11.125 105.445312 10.984375 C 105.199219 10.84375 104.964844 10.675781 104.753906 10.484375 C 104.539062 10.292969 104.347656 10.082031 104.175781 9.851562 C 104.007812 9.621094 103.863281 9.375 103.746094 9.113281 C 103.628906 8.851562 103.539062 8.582031 103.476562 8.300781 C 103.414062 8.019531 103.382812 7.738281 103.382812 7.449219 C 103.378906 7.164062 103.410156 6.878906 103.464844 6.597656 Z M 86.273438 6.597656 C 86.367188 6.277344 86.5 5.972656 86.667969 5.6875 C 86.835938 5.398438 87.039062 5.136719 87.269531 4.898438 C 87.503906 4.65625 87.761719 4.449219 88.042969 4.273438 C 88.328125 4.097656 88.625 3.957031 88.941406 3.855469 C 89.257812 3.75 89.582031 3.6875 89.914062 3.660156 C 90.246094 3.636719 90.578125 3.652344 90.90625 3.707031 C 91.234375 3.761719 91.550781 3.855469 91.855469 3.988281 C 92.164062 4.121094 92.449219 4.285156 92.714844 4.488281 C 93.285156 5 93.769531 5.582031 94.175781 6.234375 C 94.578125 6.886719 94.882812 7.582031 95.085938 8.324219 C 95.289062 9.0625 95.382812 9.816406 95.371094 10.585938 C 95.359375 11.351562 95.238281 12.101562 95.007812 12.835938 C 95.011719 13.109375 92.261719 18.9375 92.082031 19.359375 L 89.191406 19.359375 L 91.828125 11.871094 L 89.871094 11.5 C 89.585938 11.472656 89.304688 11.414062 89.03125 11.328125 C 88.761719 11.242188 88.5 11.125 88.25 10.984375 C 88.003906 10.84375 87.769531 10.675781 87.558594 10.484375 C 87.34375 10.292969 87.152344 10.082031 86.980469 9.851562 C 86.8125 9.621094 86.667969 9.375 86.550781 9.113281 C 86.433594 8.851562 86.34375 8.582031 86.28125 8.300781 C 86.21875 8.019531 86.1875 7.738281 86.1875 7.449219 C 86.1875 7.164062 86.214844 6.878906 86.273438 6.597656 Z M 24.847656 94.734375 C 24.75 95.054688 24.621094 95.359375 24.449219 95.648438 C 24.28125 95.933594 24.082031 96.199219 23.847656 96.4375 C 23.617188 96.675781 23.359375 96.882812 23.074219 97.058594 C 22.792969 97.234375 22.492188 97.375 22.175781 97.480469 C 21.859375 97.582031 21.535156 97.648438 21.203125 97.671875 C 20.871094 97.699219 20.542969 97.683594 20.214844 97.628906 C 19.886719 97.570312 19.566406 97.476562 19.261719 97.347656 C 18.957031 97.214844 18.671875 97.046875 18.40625 96.84375 C 17.835938 96.332031 17.347656 95.75 16.945312 95.097656 C 16.539062 94.445312 16.238281 93.75 16.03125 93.011719 C 15.828125 92.269531 15.734375 91.515625 15.746094 90.75 C 15.761719 89.980469 15.882812 89.230469 16.109375 88.5 C 16.105469 88.226562 18.855469 82.398438 19.035156 81.976562 L 21.925781 81.976562 L 19.292969 89.460938 L 21.25 89.835938 C 21.535156 89.863281 21.8125 89.917969 22.085938 90.007812 C 22.359375 90.09375 22.617188 90.207031 22.867188 90.351562 C 23.117188 90.492188 23.347656 90.660156 23.5625 90.847656 C 23.777344 91.039062 23.96875 91.25 24.136719 91.480469 C 24.304688 91.710938 24.449219 91.960938 24.566406 92.21875 C 24.6875 92.480469 24.777344 92.753906 24.835938 93.035156 C 24.898438 93.3125 24.929688 93.597656 24.929688 93.882812 C 24.933594 94.171875 24.90625 94.457031 24.847656 94.734375 Z M 42.042969 94.734375 C 41.945312 95.054688 41.8125 95.359375 41.644531 95.648438 C 41.476562 95.933594 41.277344 96.199219 41.042969 96.4375 C 40.808594 96.675781 40.554688 96.882812 40.269531 97.058594 C 39.988281 97.234375 39.6875 97.375 39.371094 97.480469 C 39.054688 97.582031 38.730469 97.648438 38.398438 97.671875 C 38.066406 97.699219 37.738281 97.683594 37.410156 97.628906 C 37.082031 97.570312 36.761719 97.476562 36.457031 97.347656 C 36.152344 97.214844 35.867188 97.046875 35.601562 96.84375 C 35.03125 96.332031 34.542969 95.75 34.140625 95.097656 C 33.734375 94.445312 33.429688 93.75 33.226562 93.011719 C 33.023438 92.269531 32.929688 91.515625 32.941406 90.75 C 32.957031 89.980469 33.078125 89.230469 33.304688 88.5 C 33.300781 88.226562 36.050781 82.398438 36.230469 81.976562 L 39.121094 81.976562 L 36.488281 89.460938 L 38.445312 89.835938 C 38.730469 89.863281 39.007812 89.917969 39.28125 90.007812 C 39.554688 90.09375 39.8125 90.207031 40.0625 90.351562 C 40.3125 90.492188 40.542969 90.660156 40.757812 90.847656 C 40.96875 91.039062 41.164062 91.25 41.332031 91.480469 C 41.5 91.710938 41.644531 91.960938 41.761719 92.21875 C 41.882812 92.480469 41.972656 92.753906 42.03125 93.035156 C 42.09375 93.3125 42.125 93.597656 42.125 93.882812 C 42.128906 94.171875 42.101562 94.457031 42.042969 94.734375 Z M 124.695312 74.207031 C 124.695312 74.949219 124.625 75.6875 124.480469 76.421875 C 124.335938 77.152344 124.121094 77.863281 123.835938 78.550781 C 123.554688 79.238281 123.207031 79.894531 122.792969 80.515625 C 122.378906 81.132812 121.914062 81.707031 121.386719 82.238281 C 120.863281 82.765625 120.292969 83.234375 119.675781 83.652344 C 119.058594 84.066406 118.40625 84.417969 117.71875 84.703125 C 117.03125 84.992188 116.324219 85.207031 115.597656 85.355469 C 114.867188 85.5 114.132812 85.574219 113.390625 85.578125 L 77.707031 85.578125 L 64.8125 101.777344 L 51.917969 85.578125 L 41.480469 85.578125 L 43.957031 78.542969 L 34.039062 78.542969 L 30.808594 85.578125 L 24.285156 85.578125 L 26.761719 78.542969 L 16.84375 78.542969 L 13.761719 85.25 C 13.140625 85.113281 12.535156 84.921875 11.945312 84.683594 C 11.355469 84.441406 10.789062 84.152344 10.246094 83.8125 C 9.707031 83.476562 9.195312 83.097656 8.71875 82.671875 C 8.242188 82.246094 7.804688 81.785156 7.40625 81.289062 C 7.007812 80.789062 6.65625 80.261719 6.347656 79.703125 C 6.035156 79.144531 5.777344 78.5625 5.566406 77.957031 C 5.355469 77.355469 5.195312 76.738281 5.089844 76.109375 C 4.984375 75.480469 4.929688 74.84375 4.929688 74.207031 L 4.929688 26.191406 C 4.933594 25.445312 5.003906 24.707031 5.148438 23.980469 C 5.296875 23.25 5.511719 22.539062 5.796875 21.851562 C 6.078125 21.164062 6.429688 20.511719 6.839844 19.894531 C 7.253906 19.273438 7.722656 18.703125 8.246094 18.175781 C 8.769531 17.648438 9.34375 17.179688 9.960938 16.765625 C 10.574219 16.351562 11.226562 16 11.914062 15.714844 C 12.597656 15.429688 13.304688 15.214844 14.03125 15.070312 C 14.761719 14.921875 15.496094 14.851562 16.238281 14.847656 L 87.152344 14.847656 L 84.355469 22.789062 L 94.277344 22.789062 L 97.839844 15.03125 C 97.867188 14.972656 97.878906 14.90625 97.90625 14.847656 L 104.347656 14.847656 L 101.550781 22.789062 L 111.472656 22.789062 L 115.03125 15.039062 C 115.695312 15.128906 116.347656 15.28125 116.988281 15.488281 C 117.625 15.699219 118.242188 15.964844 118.832031 16.285156 C 119.421875 16.605469 119.980469 16.976562 120.503906 17.398438 C 121.03125 17.820312 121.511719 18.285156 121.953125 18.792969 C 122.394531 19.300781 122.785156 19.84375 123.128906 20.425781 C 123.472656 21.003906 123.761719 21.609375 123.996094 22.242188 C 124.230469 22.875 124.40625 23.519531 124.523438 24.183594 C 124.640625 24.847656 124.699219 25.515625 124.695312 26.191406 Z M 124.695312 74.207031 " fill-opacity="1" fill-rule="nonzero"/></g><path fill="#000000" d="M 35.183594 29.539062 C 34.511719 29.539062 33.839844 29.574219 33.167969 29.640625 C 32.5 29.707031 31.832031 29.808594 31.171875 29.9375 C 30.511719 30.070312 29.859375 30.234375 29.214844 30.433594 C 28.570312 30.628906 27.9375 30.855469 27.316406 31.117188 C 26.695312 31.375 26.085938 31.664062 25.492188 31.980469 C 24.898438 32.300781 24.324219 32.648438 23.761719 33.023438 C 23.203125 33.398438 22.664062 33.800781 22.140625 34.226562 C 21.621094 34.65625 21.121094 35.109375 20.648438 35.585938 C 20.171875 36.066406 19.71875 36.566406 19.292969 37.085938 C 18.863281 37.609375 18.464844 38.148438 18.089844 38.710938 C 17.714844 39.273438 17.367188 39.851562 17.050781 40.445312 C 16.734375 41.042969 16.445312 41.652344 16.1875 42.277344 C 15.929688 42.898438 15.703125 43.535156 15.507812 44.179688 C 15.308594 44.828125 15.144531 45.480469 15.015625 46.144531 C 14.882812 46.804688 14.78125 47.472656 14.714844 48.144531 C 14.648438 48.816406 14.617188 49.492188 14.613281 50.167969 C 15.695312 77.515625 54.679688 77.507812 55.753906 50.167969 C 55.753906 49.492188 55.71875 48.816406 55.652344 48.144531 C 55.585938 47.472656 55.484375 46.804688 55.355469 46.144531 C 55.222656 45.480469 55.058594 44.828125 54.863281 44.179688 C 54.667969 43.535156 54.4375 42.898438 54.179688 42.277344 C 53.921875 41.652344 53.636719 41.042969 53.316406 40.445312 C 53 39.851562 52.652344 39.273438 52.277344 38.710938 C 51.90625 38.148438 51.503906 37.609375 51.078125 37.085938 C 50.648438 36.566406 50.199219 36.066406 49.722656 35.585938 C 49.246094 35.109375 48.746094 34.65625 48.226562 34.226562 C 47.707031 33.800781 47.164062 33.398438 46.605469 33.023438 C 46.046875 32.648438 45.46875 32.300781 44.875 31.980469 C 44.28125 31.664062 43.671875 31.375 43.050781 31.117188 C 42.429688 30.855469 41.796875 30.628906 41.152344 30.433594 C 40.507812 30.234375 39.855469 30.070312 39.195312 29.9375 C 38.535156 29.808594 37.871094 29.707031 37.199219 29.640625 C 36.53125 29.574219 35.859375 29.539062 35.183594 29.539062 Z M 25.332031 64.21875 L 25.332031 63.117188 L 32.25 59.253906 C 32.519531 59.105469 32.734375 58.894531 32.890625 58.625 C 33.050781 58.359375 33.128906 58.066406 33.128906 57.757812 C 33.015625 56.640625 33.585938 54.160156 32.261719 53.554688 C 31.777344 53.277344 31.339844 52.945312 30.949219 52.550781 C 30.554688 52.15625 30.21875 51.71875 29.941406 51.234375 C 29.660156 50.753906 29.449219 50.242188 29.308594 49.703125 C 29.164062 49.164062 29.09375 48.617188 29.09375 48.058594 L 29.09375 44.859375 C 29.101562 44.277344 29.191406 43.707031 29.359375 43.148438 C 29.527344 42.589844 29.773438 42.066406 30.089844 41.578125 C 30.40625 41.089844 30.789062 40.652344 31.226562 40.273438 C 31.667969 39.894531 32.152344 39.582031 32.683594 39.339844 C 33.210938 39.097656 33.765625 38.933594 34.339844 38.847656 C 34.914062 38.765625 35.492188 38.761719 36.066406 38.839844 C 36.644531 38.921875 37.199219 39.078125 37.730469 39.316406 C 38.261719 39.554688 38.75 39.859375 39.191406 40.238281 C 41.511719 42.039062 41.328125 45.429688 41.265625 48.058594 C 41.265625 48.617188 41.195312 49.164062 41.054688 49.703125 C 40.910156 50.242188 40.699219 50.753906 40.421875 51.234375 C 40.144531 51.71875 39.808594 52.15625 39.414062 52.550781 C 39.019531 52.945312 38.582031 53.277344 38.097656 53.554688 C 37.832031 53.707031 37.621094 53.917969 37.464844 54.183594 C 37.308594 54.453125 37.234375 54.738281 37.234375 55.046875 C 37.34375 56.15625 36.773438 58.667969 38.113281 59.253906 L 45.046875 63.117188 L 45.046875 64.210938 C 44.328125 64.714844 43.574219 65.160156 42.789062 65.546875 C 42.003906 65.9375 41.191406 66.261719 40.355469 66.527344 C 39.519531 66.789062 38.667969 66.988281 37.804688 67.125 C 36.9375 67.257812 36.066406 67.324219 35.191406 67.324219 C 34.3125 67.324219 33.441406 67.257812 32.574219 67.125 C 31.710938 66.992188 30.859375 66.792969 30.023438 66.53125 C 29.1875 66.265625 28.375 65.941406 27.589844 65.554688 C 26.800781 65.167969 26.050781 64.722656 25.332031 64.21875 Z M 48.246094 61.28125 C 48.402344 60.765625 41.019531 57.058594 40.65625 56.746094 L 40.65625 55.984375 C 41.28125 55.53125 41.84375 55.011719 42.34375 54.421875 C 42.847656 53.835938 43.273438 53.199219 43.621094 52.507812 C 43.972656 51.820312 44.238281 51.101562 44.417969 50.347656 C 44.597656 49.59375 44.6875 48.832031 44.6875 48.058594 L 44.6875 44.859375 C 44.679688 43.953125 44.546875 43.0625 44.289062 42.191406 C 44.03125 41.320312 43.65625 40.503906 43.164062 39.742188 C 42.675781 38.976562 42.085938 38.296875 41.402344 37.703125 C 40.71875 37.105469 39.96875 36.617188 39.144531 36.234375 C 38.324219 35.855469 37.464844 35.59375 36.570312 35.457031 C 35.671875 35.320312 34.777344 35.3125 33.878906 35.433594 C 32.980469 35.550781 32.117188 35.792969 31.289062 36.160156 C 30.460938 36.527344 29.699219 37 29.003906 37.582031 C 25.816406 40.039062 25.453125 44.328125 25.671875 48.058594 C 25.671875 48.832031 25.761719 49.597656 25.941406 50.347656 C 26.121094 51.101562 26.386719 51.820312 26.738281 52.507812 C 27.089844 53.199219 27.515625 53.835938 28.015625 54.421875 C 28.519531 55.011719 29.082031 55.53125 29.707031 55.984375 L 29.707031 56.746094 L 22.789062 60.605469 C 22.503906 60.769531 22.28125 60.996094 22.128906 61.289062 C 21.601562 60.667969 21.121094 60.011719 20.6875 59.324219 C 20.25 58.632812 19.867188 57.914062 19.535156 57.167969 C 19.199219 56.425781 18.921875 55.660156 18.699219 54.875 C 18.472656 54.089844 18.308594 53.292969 18.195312 52.484375 C 18.085938 51.675781 18.03125 50.863281 18.039062 50.046875 C 18.042969 49.230469 18.105469 48.417969 18.226562 47.609375 C 18.34375 46.800781 18.523438 46.007812 18.753906 45.222656 C 18.988281 44.441406 19.277344 43.679688 19.617188 42.9375 C 19.960938 42.199219 20.351562 41.484375 20.796875 40.800781 C 21.238281 40.113281 21.726562 39.464844 22.261719 38.851562 C 22.796875 38.234375 23.375 37.660156 23.992188 37.128906 C 24.609375 36.597656 25.261719 36.109375 25.945312 35.671875 C 26.632812 35.230469 27.347656 34.84375 28.089844 34.503906 C 28.828125 34.167969 29.589844 33.886719 30.371094 33.65625 C 31.152344 33.429688 31.949219 33.257812 32.753906 33.140625 C 33.558594 33.027344 34.371094 32.96875 35.183594 32.972656 C 49.609375 32.765625 57.703125 50.535156 48.246094 61.28125 Z M 48.246094 61.28125 " fill-opacity="1" fill-rule="nonzero"/><path fill="#000000" d="M 61.972656 34.625 L 93.390625 34.625 L 93.390625 38.054688 L 61.972656 38.054688 Z M 61.972656 34.625 " fill-opacity="1" fill-rule="nonzero"/><path fill="#000000" d="M 99.816406 34.625 L 113.300781 34.625 L 113.300781 38.054688 L 99.816406 38.054688 Z M 99.816406 34.625 " fill-opacity="1" fill-rule="nonzero"/><path fill="#000000" d="M 61.984375 44.394531 L 82.046875 44.394531 L 82.046875 47.824219 L 61.984375 47.824219 Z M 61.984375 44.394531 " fill-opacity="1" fill-rule="nonzero"/><path fill="#000000" d="M 90.824219 44.394531 L 113.300781 44.394531 L 113.300781 47.824219 L 90.824219 47.824219 Z M 90.824219 44.394531 " fill-opacity="1" fill-rule="nonzero"/><path fill="#000000" d="M 81.878906 54.269531 L 113.300781 54.269531 L 113.300781 57.699219 L 81.878906 57.699219 Z M 81.878906 54.269531 " fill-opacity="1" fill-rule="nonzero"/><path fill="#000000" d="M 61.972656 54.269531 L 75.457031 54.269531 L 75.457031 57.699219 L 61.972656 57.699219 Z M 61.972656 54.269531 " fill-opacity="1" fill-rule="nonzero"/><path fill="#000000" d="M 93.226562 64.039062 L 113.289062 64.039062 L 113.289062 67.46875 L 93.226562 67.46875 Z M 93.226562 64.039062 " fill-opacity="1" fill-rule="nonzero"/><path fill="#000000" d="M 61.972656 64.039062 L 84.449219 64.039062 L 84.449219 67.46875 L 61.972656 67.46875 Z M 61.972656 64.039062 " fill-opacity="1" fill-rule="nonzero"/></g></g></svg>