<svg xmlns="http://www.w3.org/2000/svg" xmlns:xlink="http://www.w3.org/1999/xlink" width="189" zoomAndPan="magnify" viewBox="0 0 141.75 141.750002" height="189" preserveAspectRatio="xMidYMid meet" version="1.0"><defs><clipPath id="6781f16d0f"><path d="M 32.425781 50.597656 L 42.699219 50.597656 L 42.699219 73.421875 L 32.425781 73.421875 Z M 32.425781 50.597656 " clip-rule="nonzero"/></clipPath><clipPath id="7e7cc2c15d"><path d="M 0.425781 0.597656 L 10.699219 0.597656 L 10.699219 23.421875 L 0.425781 23.421875 Z M 0.425781 0.597656 " clip-rule="nonzero"/></clipPath><clipPath id="40782969ce"><rect x="0" width="11" y="0" height="24"/></clipPath><clipPath id="19f969c2c5"><path d="M 52.582031 37.074219 L 62.105469 37.074219 L 62.105469 73.421875 L 52.582031 73.421875 Z M 52.582031 37.074219 " clip-rule="nonzero"/></clipPath><clipPath id="afba00f3e9"><path d="M 0.582031 0.0742188 L 10.105469 0.0742188 L 10.105469 36.421875 L 0.582031 36.421875 Z M 0.582031 0.0742188 " clip-rule="nonzero"/></clipPath><clipPath id="589d0bf25a"><rect x="0" width="11" y="0" height="37"/></clipPath><clipPath id="fd832252b3"><path d="M 92.042969 37.074219 L 101.570312 37.074219 L 101.570312 73.421875 L 92.042969 73.421875 Z M 92.042969 37.074219 " clip-rule="nonzero"/></clipPath><clipPath id="6d02655351"><path d="M 0.0429688 0.0742188 L 9.570312 0.0742188 L 9.570312 36.421875 L 0.0429688 36.421875 Z M 0.0429688 0.0742188 " clip-rule="nonzero"/></clipPath><clipPath id="7822398ee2"><rect x="0" width="10" y="0" height="37"/></clipPath><clipPath id="653bb7ca94"><path d="M 52.582031 14.097656 L 60.042969 14.097656 L 60.042969 21.5625 L 52.582031 21.5625 Z M 52.582031 14.097656 " clip-rule="nonzero"/></clipPath><clipPath id="47d7e5d52c"><path d="M 56.3125 14.097656 C 54.25 14.097656 52.582031 15.769531 52.582031 17.828125 C 52.582031 19.890625 54.25 21.5625 56.3125 21.5625 C 58.371094 21.5625 60.042969 19.890625 60.042969 17.828125 C 60.042969 15.769531 58.371094 14.097656 56.3125 14.097656 Z M 56.3125 14.097656 " clip-rule="nonzero"/></clipPath><clipPath id="d6b64e671b"><path d="M 0.582031 0.0976562 L 8.042969 0.0976562 L 8.042969 7.5625 L 0.582031 7.5625 Z M 0.582031 0.0976562 " clip-rule="nonzero"/></clipPath><clipPath id="e8efb81c74"><path d="M 4.3125 0.0976562 C 2.25 0.0976562 0.582031 1.769531 0.582031 3.828125 C 0.582031 5.890625 2.25 7.5625 4.3125 7.5625 C 6.371094 7.5625 8.042969 5.890625 8.042969 3.828125 C 8.042969 1.769531 6.371094 0.0976562 4.3125 0.0976562 Z M 4.3125 0.0976562 " clip-rule="nonzero"/></clipPath><clipPath id="0685520c5f"><rect x="0" width="9" y="0" height="8"/></clipPath><clipPath id="ea4a8773a4"><path d="M 93.074219 19.285156 L 100.539062 19.285156 L 100.539062 26.75 L 93.074219 26.75 Z M 93.074219 19.285156 " clip-rule="nonzero"/></clipPath><clipPath id="eaf037b350"><path d="M 96.804688 19.285156 C 94.746094 19.285156 93.074219 20.957031 93.074219 23.019531 C 93.074219 25.078125 94.746094 26.75 96.804688 26.75 C 98.867188 26.75 100.539062 25.078125 100.539062 23.019531 C 100.539062 20.957031 98.867188 19.285156 96.804688 19.285156 Z M 96.804688 19.285156 " clip-rule="nonzero"/></clipPath><clipPath id="ec15d19bc6"><path d="M 0.0742188 0.285156 L 7.539062 0.285156 L 7.539062 7.75 L 0.0742188 7.75 Z M 0.0742188 0.285156 " clip-rule="nonzero"/></clipPath><clipPath id="8abe400408"><path d="M 3.804688 0.285156 C 1.746094 0.285156 0.0742188 1.957031 0.0742188 4.019531 C 0.0742188 6.078125 1.746094 7.75 3.804688 7.75 C 5.867188 7.75 7.539062 6.078125 7.539062 4.019531 C 7.539062 1.957031 5.867188 0.285156 3.804688 0.285156 Z M 3.804688 0.285156 " clip-rule="nonzero"/></clipPath><clipPath id="dd36948b45"><rect x="0" width="8" y="0" height="8"/></clipPath><clipPath id="b47e1fa08a"><path d="M 32.425781 29.609375 L 39.890625 29.609375 L 39.890625 37.074219 L 32.425781 37.074219 Z M 32.425781 29.609375 " clip-rule="nonzero"/></clipPath><clipPath id="3cdaf77959"><path d="M 36.15625 29.609375 C 34.097656 29.609375 32.425781 31.28125 32.425781 33.34375 C 32.425781 35.402344 34.097656 37.074219 36.15625 37.074219 C 38.21875 37.074219 39.890625 35.402344 39.890625 33.34375 C 39.890625 31.28125 38.21875 29.609375 36.15625 29.609375 Z M 36.15625 29.609375 " clip-rule="nonzero"/></clipPath><clipPath id="c0a5612588"><path d="M 0.425781 0.609375 L 7.890625 0.609375 L 7.890625 8.074219 L 0.425781 8.074219 Z M 0.425781 0.609375 " clip-rule="nonzero"/></clipPath><clipPath id="fa86ed43ea"><path d="M 4.15625 0.609375 C 2.097656 0.609375 0.425781 2.28125 0.425781 4.34375 C 0.425781 6.402344 2.097656 8.074219 4.15625 8.074219 C 6.21875 8.074219 7.890625 6.402344 7.890625 4.34375 C 7.890625 2.28125 6.21875 0.609375 4.15625 0.609375 Z M 4.15625 0.609375 " clip-rule="nonzero"/></clipPath><clipPath id="25c7cd8aaf"><rect x="0" width="8" y="0" height="9"/></clipPath><clipPath id="80d9c37320"><path d="M 0.984375 0.984375 L 128.277344 0.984375 L 128.277344 128.277344 L 0.984375 128.277344 Z M 0.984375 0.984375 " clip-rule="nonzero"/></clipPath><clipPath id="389b125642"><rect x="0" width="130" y="0" height="130"/></clipPath></defs><g transform="matrix(1, 0, 0, 1, 6, 6)"><g clip-path="url(#389b125642)"><g clip-path="url(#6781f16d0f)"><g transform="matrix(1, 0, 0, 1, 32, 50)"><g clip-path="url(#40782969ce)"><g clip-path="url(#7e7cc2c15d)"><path fill="#32bfb6" d="M 0.425781 0.597656 L 10.699219 0.597656 L 10.699219 23.429688 L 0.425781 23.429688 Z M 0.425781 0.597656 " fill-opacity="1" fill-rule="nonzero"/></g></g></g></g><g clip-path="url(#19f969c2c5)"><g transform="matrix(1, 0, 0, 1, 52, 37)"><g clip-path="url(#589d0bf25a)"><g clip-path="url(#afba00f3e9)"><path fill="#dfc0aa" d="M 0.582031 0.0742188 L 10.105469 0.0742188 L 10.105469 36.429688 L 0.582031 36.429688 Z M 0.582031 0.0742188 " fill-opacity="1" fill-rule="nonzero"/></g></g></g></g><g clip-path="url(#fd832252b3)"><g transform="matrix(1, 0, 0, 1, 92, 37)"><g clip-path="url(#7822398ee2)"><g clip-path="url(#6d02655351)"><path fill="#c1ff72" d="M 0.0429688 0.0742188 L 9.570312 0.0742188 L 9.570312 36.429688 L 0.0429688 36.429688 Z M 0.0429688 0.0742188 " fill-opacity="1" fill-rule="nonzero"/></g></g></g></g><g clip-path="url(#653bb7ca94)"><g clip-path="url(#47d7e5d52c)"><g transform="matrix(1, 0, 0, 1, 52, 14)"><g clip-path="url(#0685520c5f)"><g clip-path="url(#d6b64e671b)"><g clip-path="url(#e8efb81c74)"><path fill="#32bfb6" d="M 0.582031 0.0976562 L 8.042969 0.0976562 L 8.042969 7.5625 L 0.582031 7.5625 Z M 0.582031 0.0976562 " fill-opacity="1" fill-rule="nonzero"/></g></g></g></g></g></g><g clip-path="url(#ea4a8773a4)"><g clip-path="url(#eaf037b350)"><g transform="matrix(1, 0, 0, 1, 93, 19)"><g clip-path="url(#dd36948b45)"><g clip-path="url(#ec15d19bc6)"><g clip-path="url(#8abe400408)"><path fill="#32bfb6" d="M 0.0742188 0.285156 L 7.539062 0.285156 L 7.539062 7.75 L 0.0742188 7.75 Z M 0.0742188 0.285156 " fill-opacity="1" fill-rule="nonzero"/></g></g></g></g></g></g><g clip-path="url(#b47e1fa08a)"><g clip-path="url(#3cdaf77959)"><g transform="matrix(1, 0, 0, 1, 32, 29)"><g clip-path="url(#25c7cd8aaf)"><g clip-path="url(#c0a5612588)"><g clip-path="url(#fa86ed43ea)"><path fill="#ff66c4" d="M 0.425781 0.609375 L 7.890625 0.609375 L 7.890625 8.074219 L 0.425781 8.074219 Z M 0.425781 0.609375 " fill-opacity="1" fill-rule="nonzero"/></g></g></g></g></g></g><g clip-path="url(#80d9c37320)"><path fill="#000000" d="M 114.570312 0.984375 L 14.691406 0.984375 C 7.132812 0.984375 0.984375 7.132812 0.984375 14.691406 L 0.984375 94.601562 C 0.984375 102.160156 7.132812 108.308594 14.691406 108.308594 L 52.152344 108.308594 L 52.152344 113.300781 L 49.65625 113.300781 C 42.773438 113.300781 37.175781 118.898438 37.175781 125.78125 C 37.175781 127.160156 38.292969 128.277344 39.671875 128.277344 L 89.589844 128.277344 C 90.96875 128.277344 92.085938 127.160156 92.085938 125.78125 C 92.085938 118.898438 86.488281 113.300781 79.605469 113.300781 L 77.109375 113.300781 L 77.109375 108.308594 L 114.570312 108.308594 C 122.128906 108.308594 128.277344 102.160156 128.277344 94.601562 L 128.277344 14.691406 C 128.277344 7.132812 122.128906 0.984375 114.570312 0.984375 Z M 14.691406 5.976562 L 114.570312 5.976562 C 119.375 5.976562 123.285156 9.886719 123.285156 14.691406 L 123.285156 83.351562 L 5.976562 83.351562 L 5.976562 14.691406 C 5.976562 9.886719 9.886719 5.976562 14.691406 5.976562 Z M 86.667969 123.285156 L 42.59375 123.285156 C 43.625 120.378906 46.402344 118.292969 49.65625 118.292969 L 79.605469 118.292969 C 82.859375 118.292969 85.636719 120.378906 86.667969 123.285156 Z M 72.117188 113.300781 L 57.144531 113.300781 L 57.144531 108.308594 L 72.117188 108.308594 Z M 114.570312 103.316406 L 14.691406 103.316406 C 9.886719 103.316406 5.976562 99.40625 5.976562 94.601562 L 5.976562 88.34375 L 123.285156 88.34375 L 123.285156 94.601562 C 123.285156 99.40625 119.375 103.316406 114.570312 103.316406 Z M 114.570312 103.316406 " fill-opacity="1" fill-rule="nonzero"/></g><path fill="#000000" d="M 37.175781 40.917969 C 41.683594 40.917969 45.214844 36.933594 44.589844 32.410156 L 52.285156 24.148438 C 54.683594 26.199219 58.015625 26.480469 60.667969 25.058594 L 69.675781 32.5625 C 69.152344 37.046875 72.671875 40.917969 77.109375 40.917969 C 81.238281 40.917969 84.597656 37.5625 84.597656 33.433594 L 92.941406 29.683594 C 94.125 30.472656 95.546875 30.9375 97.078125 30.9375 C 101.207031 30.9375 104.566406 27.578125 104.566406 23.449219 C 104.566406 19.320312 101.207031 15.960938 97.078125 15.960938 C 92.101562 15.960938 88.46875 20.765625 89.898438 25.578125 L 82.917969 28.714844 C 80.175781 25.34375 75.160156 24.988281 71.980469 27.988281 L 64.039062 21.371094 C 66.128906 16.445312 62.484375 10.96875 57.144531 10.96875 C 52.601562 10.96875 49.0625 15.011719 49.738281 19.558594 L 42.082031 27.78125 C 40.765625 26.636719 39.050781 25.945312 37.175781 25.945312 C 33.046875 25.945312 29.6875 29.304688 29.6875 33.433594 C 29.6875 37.558594 33.046875 40.917969 37.175781 40.917969 Z M 97.078125 20.953125 C 98.453125 20.953125 99.574219 22.070312 99.574219 23.449219 C 99.574219 24.824219 98.453125 25.945312 97.078125 25.945312 C 95.703125 25.945312 94.582031 24.824219 94.582031 23.449219 C 94.582031 22.070312 95.703125 20.953125 97.078125 20.953125 Z M 77.109375 30.9375 C 78.488281 30.9375 79.605469 32.054688 79.605469 33.433594 C 79.605469 34.808594 78.488281 35.925781 77.109375 35.925781 C 75.734375 35.925781 74.613281 34.808594 74.613281 33.433594 C 74.613281 32.054688 75.734375 30.9375 77.109375 30.9375 Z M 57.144531 15.960938 C 58.519531 15.960938 59.640625 17.082031 59.640625 18.457031 C 59.640625 19.832031 58.519531 20.953125 57.144531 20.953125 C 55.765625 20.953125 54.648438 19.832031 54.648438 18.457031 C 54.648438 17.082031 55.765625 15.960938 57.144531 15.960938 Z M 37.175781 30.9375 C 38.550781 30.9375 39.671875 32.054688 39.671875 33.433594 C 39.671875 34.808594 38.550781 35.925781 37.175781 35.925781 C 35.800781 35.925781 34.679688 34.808594 34.679688 33.433594 C 34.679688 32.054688 35.800781 30.9375 37.175781 30.9375 Z M 37.175781 30.9375 " fill-opacity="1" fill-rule="nonzero"/><path fill="#000000" d="M 22.199219 78.359375 C 22.976562 78.359375 105.050781 78.359375 107.0625 78.359375 C 108.4375 78.359375 109.558594 77.242188 109.558594 75.863281 C 109.558594 74.484375 108.4375 73.367188 107.0625 73.367188 L 104.566406 73.367188 L 104.566406 38.421875 C 104.566406 37.046875 103.449219 35.925781 102.070312 35.925781 L 92.085938 35.925781 C 90.707031 35.925781 89.589844 37.046875 89.589844 38.421875 L 89.589844 73.367188 L 84.597656 73.367188 L 84.597656 53.398438 C 84.597656 52.019531 83.480469 50.902344 82.101562 50.902344 L 72.117188 50.902344 C 70.738281 50.902344 69.621094 52.019531 69.621094 53.398438 L 69.621094 73.367188 L 64.628906 73.367188 L 64.628906 38.421875 C 64.628906 37.046875 63.511719 35.925781 62.136719 35.925781 L 52.152344 35.925781 C 50.773438 35.925781 49.65625 37.046875 49.65625 38.421875 L 49.65625 73.367188 L 44.664062 73.367188 L 44.664062 50.902344 C 44.664062 49.523438 43.546875 48.40625 42.167969 48.40625 L 32.183594 48.40625 C 30.804688 48.40625 29.6875 49.523438 29.6875 50.902344 L 29.6875 73.367188 L 22.199219 73.367188 C 20.820312 73.367188 19.703125 74.484375 19.703125 75.863281 C 19.703125 77.242188 20.820312 78.359375 22.199219 78.359375 Z M 94.582031 40.917969 L 99.574219 40.917969 L 99.574219 73.367188 L 94.582031 73.367188 Z M 74.613281 55.894531 L 79.605469 55.894531 L 79.605469 73.367188 L 74.613281 73.367188 Z M 54.648438 40.917969 L 59.640625 40.917969 L 59.640625 73.367188 L 54.648438 73.367188 Z M 34.679688 53.398438 L 39.671875 53.398438 L 39.671875 73.367188 L 34.679688 73.367188 Z M 34.679688 53.398438 " fill-opacity="1" fill-rule="nonzero"/><path fill="#000000" d="M 118.292969 95.828125 C 118.292969 96.160156 118.230469 96.480469 118.101562 96.785156 C 117.976562 97.089844 117.796875 97.359375 117.5625 97.59375 C 117.328125 97.828125 117.058594 98.007812 116.753906 98.136719 C 116.445312 98.261719 116.128906 98.324219 115.796875 98.324219 C 115.464844 98.324219 115.148438 98.261719 114.839844 98.136719 C 114.535156 98.007812 114.265625 97.828125 114.03125 97.59375 C 113.796875 97.359375 113.617188 97.089844 113.492188 96.785156 C 113.363281 96.480469 113.300781 96.160156 113.300781 95.828125 C 113.300781 95.5 113.363281 95.179688 113.492188 94.875 C 113.617188 94.570312 113.796875 94.296875 114.03125 94.066406 C 114.265625 93.832031 114.535156 93.648438 114.839844 93.523438 C 115.148438 93.398438 115.464844 93.332031 115.796875 93.332031 C 116.128906 93.332031 116.445312 93.398438 116.753906 93.523438 C 117.058594 93.648438 117.328125 93.832031 117.5625 94.066406 C 117.796875 94.296875 117.976562 94.570312 118.101562 94.875 C 118.230469 95.179688 118.292969 95.5 118.292969 95.828125 Z M 118.292969 95.828125 " fill-opacity="1" fill-rule="nonzero"/><path fill="#000000" d="M 105.8125 93.332031 L 100.820312 93.332031 C 99.441406 93.332031 98.324219 94.453125 98.324219 95.828125 C 98.324219 97.207031 99.441406 98.324219 100.820312 98.324219 L 105.8125 98.324219 C 107.191406 98.324219 108.308594 97.207031 108.308594 95.828125 C 108.308594 94.453125 107.191406 93.332031 105.8125 93.332031 Z M 105.8125 93.332031 " fill-opacity="1" fill-rule="nonzero"/><path fill="#000000" d="M 90.835938 93.332031 L 85.847656 93.332031 C 84.46875 93.332031 83.351562 94.453125 83.351562 95.828125 C 83.351562 97.207031 84.46875 98.324219 85.847656 98.324219 L 90.835938 98.324219 C 92.214844 98.324219 93.332031 97.207031 93.332031 95.828125 C 93.332031 94.453125 92.214844 93.332031 90.835938 93.332031 Z M 90.835938 93.332031 " fill-opacity="1" fill-rule="nonzero"/></g></g></svg>