<svg xmlns="http://www.w3.org/2000/svg" xmlns:xlink="http://www.w3.org/1999/xlink" width="189" zoomAndPan="magnify" viewBox="0 0 141.75 141.750002" height="189" preserveAspectRatio="xMidYMid meet" version="1.0"><defs><clipPath id="477d99a402"><path d="M 14.140625 23.910156 L 51.242188 23.910156 L 51.242188 61.5 L 14.140625 61.5 Z M 14.140625 23.910156 " clip-rule="nonzero"/></clipPath><clipPath id="b79d454cd8"><path d="M 0.140625 0.910156 L 37.242188 0.910156 L 37.242188 38.5 L 0.140625 38.5 Z M 0.140625 0.910156 " clip-rule="nonzero"/></clipPath><clipPath id="5be03e3de0"><rect x="0" width="38" y="0" height="39"/></clipPath><clipPath id="ff6148bf10"><path d="M 82.765625 24.039062 L 101.4375 24.039062 L 101.4375 42.710938 L 82.765625 42.710938 Z M 82.765625 24.039062 " clip-rule="nonzero"/></clipPath><clipPath id="0a0747bcc8"><path d="M 92.101562 24.039062 C 86.945312 24.039062 82.765625 28.21875 82.765625 33.375 C 82.765625 38.53125 86.945312 42.710938 92.101562 42.710938 C 97.257812 42.710938 101.4375 38.53125 101.4375 33.375 C 101.4375 28.21875 97.257812 24.039062 92.101562 24.039062 Z M 92.101562 24.039062 " clip-rule="nonzero"/></clipPath><clipPath id="9d765fc1d2"><path d="M 0.765625 0.0390625 L 19.4375 0.0390625 L 19.4375 18.710938 L 0.765625 18.710938 Z M 0.765625 0.0390625 " clip-rule="nonzero"/></clipPath><clipPath id="eeaa9ea293"><path d="M 10.101562 0.0390625 C 4.945312 0.0390625 0.765625 4.21875 0.765625 9.375 C 0.765625 14.53125 4.945312 18.710938 10.101562 18.710938 C 15.257812 18.710938 19.4375 14.53125 19.4375 9.375 C 19.4375 4.21875 15.257812 0.0390625 10.101562 0.0390625 Z M 10.101562 0.0390625 " clip-rule="nonzero"/></clipPath><clipPath id="5d007bb1d2"><rect x="0" width="20" y="0" height="19"/></clipPath><clipPath id="faf03923fb"><path d="M 94.820312 27.367188 L 113.175781 27.367188 L 113.175781 45.71875 L 94.820312 45.71875 Z M 94.820312 27.367188 " clip-rule="nonzero"/></clipPath><clipPath id="86f31880ac"><path d="M 103.996094 27.367188 C 98.929688 27.367188 94.820312 31.476562 94.820312 36.542969 C 94.820312 41.613281 98.929688 45.71875 103.996094 45.71875 C 109.066406 45.71875 113.175781 41.613281 113.175781 36.542969 C 113.175781 31.476562 109.066406 27.367188 103.996094 27.367188 Z M 103.996094 27.367188 " clip-rule="nonzero"/></clipPath><clipPath id="5697db55cb"><path d="M 0.820312 0.367188 L 19.175781 0.367188 L 19.175781 18.71875 L 0.820312 18.71875 Z M 0.820312 0.367188 " clip-rule="nonzero"/></clipPath><clipPath id="5fcf8feb21"><path d="M 9.996094 0.367188 C 4.929688 0.367188 0.820312 4.476562 0.820312 9.542969 C 0.820312 14.613281 4.929688 18.71875 9.996094 18.71875 C 15.066406 18.71875 19.175781 14.613281 19.175781 9.542969 C 19.175781 4.476562 15.066406 0.367188 9.996094 0.367188 Z M 9.996094 0.367188 " clip-rule="nonzero"/></clipPath><clipPath id="fee63b57d7"><rect x="0" width="20" y="0" height="19"/></clipPath><clipPath id="5502bcd36f"><path d="M 0.601562 16.425781 L 136.875 16.425781 L 136.875 113.015625 L 0.601562 113.015625 Z M 0.601562 16.425781 " clip-rule="nonzero"/></clipPath><clipPath id="cbef59ffa4"><path d="M 61.285156 0.6875 L 68.75 0.6875 L 68.75 8.148438 L 61.285156 8.148438 Z M 61.285156 0.6875 " clip-rule="nonzero"/></clipPath><clipPath id="17f715c64e"><path d="M 65.019531 0.6875 C 62.957031 0.6875 61.285156 2.355469 61.285156 4.417969 C 61.285156 6.480469 62.957031 8.148438 65.019531 8.148438 C 67.078125 8.148438 68.75 6.480469 68.75 4.417969 C 68.75 2.355469 67.078125 0.6875 65.019531 0.6875 Z M 65.019531 0.6875 " clip-rule="nonzero"/></clipPath><clipPath id="182a3dc840"><path d="M 0.285156 0.6875 L 7.75 0.6875 L 7.75 8.148438 L 0.285156 8.148438 Z M 0.285156 0.6875 " clip-rule="nonzero"/></clipPath><clipPath id="ec2a4e257a"><path d="M 4.019531 0.6875 C 1.957031 0.6875 0.285156 2.355469 0.285156 4.417969 C 0.285156 6.480469 1.957031 8.148438 4.019531 8.148438 C 6.078125 8.148438 7.75 6.480469 7.75 4.417969 C 7.75 2.355469 6.078125 0.6875 4.019531 0.6875 Z M 4.019531 0.6875 " clip-rule="nonzero"/></clipPath><clipPath id="f734815445"><rect x="0" width="8" y="0" height="9"/></clipPath><clipPath id="a73067a459"><rect x="0" width="138" y="0" height="114"/></clipPath></defs><g transform="matrix(1, 0, 0, 1, 2, 6)"><g clip-path="url(#a73067a459)"><g clip-path="url(#477d99a402)"><g transform="matrix(1, 0, 0, 1, 14, 23)"><g clip-path="url(#5be03e3de0)"><g clip-path="url(#b79d454cd8)"><path fill="#32bfb6" d="M 0.140625 38.5 L 0.140625 0.964844 L 37.242188 0.964844 L 37.242188 38.5 Z M 0.140625 38.5 " fill-opacity="1" fill-rule="nonzero"/></g></g></g></g><g clip-path="url(#ff6148bf10)"><g clip-path="url(#0a0747bcc8)"><g transform="matrix(1, 0, 0, 1, 82, 24)"><g clip-path="url(#5d007bb1d2)"><g clip-path="url(#9d765fc1d2)"><g clip-path="url(#eeaa9ea293)"><path fill="#ff66c4" d="M 0.765625 0.0390625 L 19.4375 0.0390625 L 19.4375 18.710938 L 0.765625 18.710938 Z M 0.765625 0.0390625 " fill-opacity="1" fill-rule="nonzero"/></g></g></g></g></g></g><g clip-path="url(#faf03923fb)"><g clip-path="url(#86f31880ac)"><g transform="matrix(1, 0, 0, 1, 94, 27)"><g clip-path="url(#fee63b57d7)"><g clip-path="url(#5697db55cb)"><g clip-path="url(#5fcf8feb21)"><path fill="#c1ff72" d="M 0.820312 0.367188 L 19.175781 0.367188 L 19.175781 18.71875 L 0.820312 18.71875 Z M 0.820312 0.367188 " fill-opacity="1" fill-rule="nonzero"/></g></g></g></g></g></g><path fill="#000000" d="M 108.722656 100.996094 C 91.515625 100.945312 80.941406 101.085938 78.996094 101.113281 C 76.300781 101.15625 73.621094 101.539062 71.03125 102.25 C 68.46875 102.949219 65.980469 103.988281 63.617188 105.335938 C 61.207031 103.964844 58.773438 102.953125 56.195312 102.25 C 53.617188 101.539062 50.9375 101.15625 48.226562 101.113281 C 46.28125 101.085938 35.707031 100.945312 18.515625 100.996094 C 17.921875 100.996094 17.441406 101.480469 17.445312 102.074219 C 17.445312 102.664062 17.925781 103.144531 18.515625 103.144531 C 18.519531 103.144531 18.519531 103.144531 18.519531 103.144531 C 35.699219 103.097656 46.253906 103.234375 48.195312 103.261719 C 50.722656 103.300781 53.222656 103.65625 55.625 104.316406 C 58.214844 105.027344 60.648438 106.066406 63.070312 107.5 C 63.238281 107.601562 63.429688 107.652344 63.617188 107.652344 C 63.808594 107.652344 64 107.601562 64.167969 107.5 C 66.527344 106.09375 69.027344 105.023438 71.597656 104.320312 C 74.015625 103.65625 76.515625 103.300781 79.03125 103.261719 C 80.972656 103.234375 91.527344 103.09375 108.714844 103.144531 C 108.71875 103.144531 108.71875 103.144531 108.71875 103.144531 C 109.3125 103.144531 109.792969 102.664062 109.792969 102.074219 C 109.792969 101.480469 109.3125 100.996094 108.722656 100.996094 Z M 108.722656 100.996094 " fill-opacity="1" fill-rule="nonzero"/><path fill="#000000" d="M 92.21875 46.027344 C 94.394531 46.027344 96.46875 45.398438 98.269531 44.207031 C 100.058594 45.398438 102.132812 46.027344 104.316406 46.027344 C 110.367188 46.027344 115.289062 41.109375 115.289062 35.066406 C 115.289062 29.023438 110.367188 24.109375 104.316406 24.109375 C 102.132812 24.109375 100.058594 24.738281 98.269531 25.929688 C 96.472656 24.738281 94.394531 24.109375 92.21875 24.109375 C 86.160156 24.109375 81.234375 29.023438 81.234375 35.066406 C 81.234375 41.109375 86.160156 46.027344 92.21875 46.027344 Z M 113.140625 35.066406 C 113.140625 39.925781 109.183594 43.878906 104.316406 43.878906 C 102.785156 43.878906 101.328125 43.488281 100.027344 42.757812 C 102.046875 40.714844 103.1875 37.984375 103.1875 35.066406 C 103.1875 32.148438 102.046875 29.421875 100.027344 27.378906 C 101.328125 26.648438 102.785156 26.257812 104.316406 26.257812 C 109.183594 26.257812 113.140625 30.210938 113.140625 35.066406 Z M 92.21875 26.257812 C 93.742188 26.257812 95.203125 26.648438 96.511719 27.378906 C 94.488281 29.410156 93.34375 32.140625 93.34375 35.066406 C 93.34375 37.996094 94.488281 40.726562 96.511719 42.757812 C 95.203125 43.488281 93.742188 43.878906 92.21875 43.878906 C 87.34375 43.878906 83.382812 39.925781 83.382812 35.066406 C 83.382812 30.210938 87.34375 26.257812 92.21875 26.257812 Z M 92.21875 26.257812 " fill-opacity="1" fill-rule="nonzero"/><path fill="#000000" d="M 71.316406 33.953125 L 76.8125 33.953125 C 77.402344 33.953125 77.886719 33.472656 77.886719 32.878906 C 77.886719 32.285156 77.402344 31.804688 76.8125 31.804688 L 71.316406 31.804688 C 70.722656 31.804688 70.242188 32.285156 70.242188 32.878906 C 70.242188 33.472656 70.722656 33.953125 71.316406 33.953125 Z M 71.316406 33.953125 " fill-opacity="1" fill-rule="nonzero"/><path fill="#000000" d="M 71.316406 39.4375 L 76.8125 39.4375 C 77.402344 39.4375 77.886719 38.953125 77.886719 38.363281 C 77.886719 37.769531 77.402344 37.289062 76.8125 37.289062 L 71.316406 37.289062 C 70.722656 37.289062 70.242188 37.769531 70.242188 38.363281 C 70.242188 38.953125 70.722656 39.4375 71.316406 39.4375 Z M 71.316406 39.4375 " fill-opacity="1" fill-rule="nonzero"/><path fill="#000000" d="M 14.113281 62.5 L 51.519531 62.5 C 52.109375 62.5 52.589844 62.019531 52.589844 61.425781 L 52.589844 54.816406 L 55.910156 54.816406 C 56.5 54.816406 56.984375 54.335938 56.984375 53.742188 L 56.984375 32.878906 C 56.984375 32.285156 56.5 31.804688 55.910156 31.804688 L 52.589844 31.804688 L 52.589844 24.089844 C 52.589844 23.496094 52.109375 23.015625 51.519531 23.015625 L 14.113281 23.015625 C 13.523438 23.015625 13.042969 23.496094 13.042969 24.089844 L 13.042969 61.425781 C 13.042969 62.019531 13.523438 62.5 14.113281 62.5 Z M 15.1875 25.160156 L 50.445312 25.160156 L 50.445312 60.351562 L 15.1875 60.351562 Z M 15.1875 25.160156 " fill-opacity="1" fill-rule="nonzero"/><path fill="#000000" d="M 43.808594 32.898438 L 21.8125 32.898438 C 21.21875 32.898438 20.738281 33.378906 20.738281 33.972656 C 20.738281 34.566406 21.21875 35.046875 21.8125 35.046875 L 43.808594 35.046875 C 44.402344 35.046875 44.882812 34.566406 44.882812 33.972656 C 44.882812 33.378906 44.402344 32.898438 43.808594 32.898438 Z M 43.808594 32.898438 " fill-opacity="1" fill-rule="nonzero"/><path fill="#000000" d="M 43.808594 39.488281 L 21.8125 39.488281 C 21.21875 39.488281 20.738281 39.96875 20.738281 40.5625 C 20.738281 41.15625 21.21875 41.636719 21.8125 41.636719 L 43.808594 41.636719 C 44.402344 41.636719 44.882812 41.15625 44.882812 40.5625 C 44.882812 39.96875 44.402344 39.488281 43.808594 39.488281 Z M 43.808594 39.488281 " fill-opacity="1" fill-rule="nonzero"/><path fill="#000000" d="M 31.710938 46.078125 L 21.8125 46.078125 C 21.21875 46.078125 20.738281 46.558594 20.738281 47.152344 C 20.738281 47.746094 21.21875 48.226562 21.8125 48.226562 L 31.710938 48.226562 C 32.304688 48.226562 32.785156 47.746094 32.785156 47.152344 C 32.785156 46.558594 32.304688 46.078125 31.710938 46.078125 Z M 31.710938 46.078125 " fill-opacity="1" fill-rule="nonzero"/><path fill="#000000" d="M 13.019531 72.382812 L 52.613281 72.382812 C 53.207031 72.382812 53.6875 71.902344 53.6875 71.3125 C 53.6875 70.71875 53.207031 70.238281 52.613281 70.238281 L 13.019531 70.238281 C 12.425781 70.238281 11.945312 70.71875 11.945312 71.3125 C 11.945312 71.902344 12.425781 72.382812 13.019531 72.382812 Z M 13.019531 72.382812 " fill-opacity="1" fill-rule="nonzero"/><path fill="#000000" d="M 24.011719 77.921875 L 13.019531 77.921875 C 12.425781 77.921875 11.945312 78.402344 11.945312 78.996094 C 11.945312 79.589844 12.425781 80.070312 13.019531 80.070312 L 24.011719 80.070312 C 24.605469 80.070312 25.085938 79.589844 25.085938 78.996094 C 25.085938 78.402344 24.605469 77.921875 24.011719 77.921875 Z M 24.011719 77.921875 " fill-opacity="1" fill-rule="nonzero"/><path fill="#000000" d="M 53.6875 78.996094 C 53.6875 78.402344 53.207031 77.921875 52.613281 77.921875 L 30.617188 77.921875 C 30.023438 77.921875 29.542969 78.402344 29.542969 78.996094 C 29.542969 79.589844 30.023438 80.070312 30.617188 80.070312 L 52.613281 80.070312 C 53.207031 80.070312 53.6875 79.589844 53.6875 78.996094 Z M 53.6875 78.996094 " fill-opacity="1" fill-rule="nonzero"/><path fill="#000000" d="M 38.3125 83.417969 C 35.902344 83.417969 33.945312 85.378906 33.945312 87.785156 C 33.945312 90.195312 35.902344 92.152344 38.3125 92.152344 C 40.730469 92.152344 42.695312 90.195312 42.695312 87.785156 C 42.695312 85.378906 40.730469 83.417969 38.3125 83.417969 Z M 38.3125 83.417969 " fill-opacity="1" fill-rule="nonzero"/><path fill="#000000" d="M 53.6875 87.785156 C 53.6875 85.378906 51.726562 83.417969 49.316406 83.417969 C 46.902344 83.417969 44.9375 85.378906 44.9375 87.785156 C 44.9375 90.195312 46.902344 92.152344 49.316406 92.152344 C 51.726562 92.152344 53.6875 90.195312 53.6875 87.785156 Z M 53.6875 87.785156 " fill-opacity="1" fill-rule="nonzero"/><path fill="#000000" d="M 71.0625 92.125 C 71.148438 92.144531 71.230469 92.152344 71.316406 92.152344 C 71.800781 92.152344 72.238281 91.824219 72.355469 91.332031 C 72.625 90.214844 73.554688 87.398438 76.351562 85.355469 C 77.5 84.511719 78.671875 84.015625 79.75 83.722656 C 78.976562 85.160156 78.964844 86.269531 79.054688 86.832031 C 79.328125 88.882812 81.027344 91.019531 83.390625 91.046875 C 83.414062 91.046875 83.4375 91.046875 83.460938 91.046875 C 85.546875 91.046875 87.511719 89.125 87.777344 86.816406 C 88.03125 84.695312 86.753906 82.625 84.710938 81.640625 C 86.648438 80.386719 88.929688 79.667969 90.765625 79.269531 L 90.070312 82.027344 C 89.925781 82.605469 90.273438 83.1875 90.851562 83.332031 C 90.9375 83.355469 91.027344 83.363281 91.113281 83.363281 C 91.59375 83.363281 92.03125 83.039062 92.152344 82.550781 L 93.261719 78.164062 C 93.261719 78.164062 93.261719 78.160156 93.261719 78.160156 C 93.292969 78.03125 93.292969 77.90625 93.277344 77.78125 C 93.273438 77.742188 93.261719 77.707031 93.253906 77.671875 C 93.234375 77.582031 93.207031 77.496094 93.164062 77.414062 C 93.144531 77.382812 93.132812 77.347656 93.113281 77.316406 C 93.050781 77.222656 92.972656 77.132812 92.878906 77.058594 C 92.871094 77.054688 92.867188 77.046875 92.859375 77.042969 L 88.457031 73.746094 C 87.984375 73.390625 87.3125 73.488281 86.957031 73.960938 C 86.601562 74.4375 86.699219 75.109375 87.171875 75.464844 L 89.648438 77.316406 C 87.140625 77.933594 84.027344 79.097656 81.75 81.21875 C 79.960938 81.335938 77.476562 81.863281 75.082031 83.625 C 71.714844 86.085938 70.597656 89.480469 70.269531 90.828125 C 70.132812 91.40625 70.484375 91.984375 71.0625 92.125 Z M 85.644531 86.570312 C 85.507812 87.765625 84.433594 88.910156 83.425781 88.902344 C 82.164062 88.886719 81.3125 87.527344 81.179688 86.527344 C 81.140625 86.285156 81.09375 85.390625 82.089844 84.019531 C 82.265625 83.769531 82.449219 83.542969 82.644531 83.332031 C 82.902344 83.34375 83.097656 83.34375 83.222656 83.351562 C 84.773438 83.8125 85.808594 85.179688 85.644531 86.570312 Z M 85.644531 86.570312 " fill-opacity="1" fill-rule="nonzero"/><g clip-path="url(#5502bcd36f)"><path fill="#000000" d="M 134.898438 97.234375 L 129.964844 92.949219 L 130.503906 92.332031 C 130.691406 92.117188 130.785156 91.839844 130.765625 91.554688 C 130.746094 91.269531 130.613281 91.003906 130.398438 90.816406 L 127.554688 88.351562 L 126.28125 87.242188 L 126.28125 17.5 C 126.28125 16.90625 125.800781 16.425781 125.207031 16.425781 L 78.996094 16.425781 C 76.300781 16.46875 73.621094 16.847656 71.027344 17.558594 C 68.394531 18.292969 65.910156 19.34375 63.617188 20.660156 C 61.300781 19.335938 58.8125 18.285156 56.195312 17.558594 C 53.613281 16.847656 50.933594 16.46875 48.210938 16.425781 L 2.015625 16.425781 C 1.421875 16.425781 0.941406 16.90625 0.941406 17.5 L 0.941406 96.566406 C 0.941406 96.585938 0.953125 96.605469 0.953125 96.625 C 0.960938 96.726562 0.980469 96.824219 1.015625 96.917969 C 1.023438 96.949219 1.03125 96.980469 1.042969 97.007812 C 1.089844 97.113281 1.152344 97.214844 1.234375 97.304688 C 1.808594 97.90625 3.144531 99.582031 3.144531 102.058594 C 3.144531 102.707031 3.003906 104.960938 1.238281 106.816406 C 0.941406 107.128906 0.859375 107.589844 1.03125 107.984375 C 1.203125 108.378906 1.640625 108.652344 2.027344 108.628906 C 24.53125 108.398438 41.636719 108.523438 48.195312 108.628906 C 50.71875 108.667969 53.21875 109.023438 55.625 109.6875 C 58.214844 110.394531 60.648438 111.433594 63.070312 112.871094 C 63.238281 112.96875 63.425781 113.019531 63.617188 113.019531 C 63.808594 113.019531 63.996094 112.96875 64.167969 112.867188 C 66.523438 111.464844 69.023438 110.390625 71.597656 109.6875 C 74.011719 109.027344 76.511719 108.671875 79.03125 108.632812 C 85.597656 108.523438 102.710938 108.402344 125.199219 108.632812 C 125.667969 108.644531 126.019531 108.382812 126.191406 107.984375 C 126.363281 107.589844 126.28125 107.128906 125.984375 106.816406 C 124.21875 104.960938 124.082031 102.707031 124.082031 102.0625 C 124.082031 100.714844 124.492188 99.625 124.894531 98.859375 L 129.777344 103.117188 C 130.480469 103.730469 131.363281 104.058594 132.285156 104.058594 C 132.375 104.058594 132.464844 104.054688 132.554688 104.050781 C 133.574219 103.980469 134.503906 103.515625 135.164062 102.757812 L 135.273438 102.636719 C 136.660156 101.039062 136.492188 98.617188 134.898438 97.234375 Z M 115.984375 95.753906 L 107.476562 88.355469 C 107.320312 88.222656 107.230469 88.039062 107.214844 87.839844 C 107.203125 87.632812 107.269531 87.433594 107.351562 87.332031 C 107.371094 87.3125 107.453125 87.234375 107.464844 87.214844 C 107.601562 87.058594 107.789062 86.96875 107.992188 86.953125 C 108.011719 86.953125 108.027344 86.949219 108.046875 86.949219 C 108.230469 86.949219 108.402344 87.015625 108.539062 87.136719 L 121.984375 98.835938 L 120.917969 100.054688 Z M 70.007812 45.953125 L 78.832031 49.410156 L 74.640625 54.207031 Z M 127.644531 92.347656 C 127.644531 92.347656 127.644531 92.347656 127.640625 92.347656 L 123.925781 96.597656 C 123.925781 96.597656 123.925781 96.597656 123.925781 96.601562 C 123.925781 96.601562 123.925781 96.601562 123.921875 96.601562 L 123.394531 97.214844 L 122.171875 96.148438 L 126.957031 90.671875 L 128.179688 91.730469 Z M 71.597656 19.628906 C 74.011719 18.96875 76.511719 18.613281 79.011719 18.570312 L 124.136719 18.570312 L 124.136719 85.371094 L 107.949219 71.289062 L 117.511719 71.289062 C 118.105469 71.289062 118.585938 70.808594 118.585938 70.214844 C 118.585938 69.625 118.105469 69.144531 117.511719 69.144531 L 105.472656 69.144531 L 97.835938 62.5 L 117.511719 62.5 C 118.105469 62.5 118.585938 62.019531 118.585938 61.425781 C 118.585938 60.835938 118.105469 60.351562 117.511719 60.351562 L 95.367188 60.351562 L 87.734375 53.710938 L 114.214844 53.710938 C 114.808594 53.710938 115.289062 53.230469 115.289062 52.636719 C 115.289062 52.042969 114.808594 51.5625 114.214844 51.5625 L 85.265625 51.5625 L 81.347656 48.15625 C 81.300781 48.113281 81.242188 48.097656 81.1875 48.0625 C 81.136719 48.03125 81.09375 47.988281 81.035156 47.964844 L 67.992188 42.855469 C 67.570312 42.691406 67.089844 42.808594 66.789062 43.152344 C 66.492188 43.492188 66.441406 43.984375 66.664062 44.382812 L 73.511719 56.585938 C 73.570312 56.6875 73.648438 56.773438 73.726562 56.847656 C 73.734375 56.851562 73.738281 56.863281 73.746094 56.867188 L 77.75 60.351562 L 71.316406 60.351562 C 70.722656 60.351562 70.242188 60.832031 70.242188 61.425781 C 70.242188 62.019531 70.722656 62.5 71.316406 62.5 L 80.21875 62.5 L 87.855469 69.140625 L 70.210938 69.140625 C 69.617188 69.140625 69.136719 69.621094 69.136719 70.214844 C 69.136719 70.808594 69.617188 71.289062 70.210938 71.289062 L 90.324219 71.289062 L 106.429688 85.296875 C 106.230469 85.429688 106.046875 85.574219 105.898438 85.746094 C 105.878906 85.765625 105.796875 85.851562 105.777344 85.871094 C 105.269531 86.460938 105.019531 87.210938 105.074219 87.984375 C 105.125 88.761719 105.480469 89.472656 106.070312 89.976562 L 112.402344 95.488281 L 78.996094 95.488281 C 76.324219 95.53125 73.644531 95.917969 71.03125 96.632812 C 68.816406 97.242188 66.695312 98.089844 64.691406 99.144531 L 64.691406 22.503906 C 66.273438 21.59375 68.632812 20.453125 71.597656 19.628906 Z M 3.089844 95.492188 L 3.089844 18.570312 L 48.195312 18.570312 C 50.71875 18.613281 53.21875 18.96875 55.621094 19.628906 C 58.0625 20.304688 60.386719 21.269531 62.542969 22.503906 L 62.542969 99.148438 C 60.519531 98.089844 58.394531 97.238281 56.195312 96.636719 C 53.589844 95.917969 50.910156 95.535156 48.210938 95.492188 Z M 78.996094 106.480469 C 76.300781 106.523438 73.621094 106.90625 71.03125 107.613281 C 68.46875 108.316406 65.980469 109.355469 63.617188 110.703125 C 61.207031 109.332031 58.773438 108.320312 56.195312 107.613281 C 53.617188 106.90625 50.9375 106.523438 48.230469 106.480469 C 41.867188 106.378906 25.613281 106.257812 4.140625 106.460938 C 5.152344 104.632812 5.289062 102.871094 5.289062 102.058594 C 5.289062 100.230469 4.738281 98.734375 4.121094 97.636719 L 48.195312 97.636719 C 50.695312 97.675781 53.195312 98.035156 55.625 98.703125 C 58.234375 99.417969 60.738281 100.488281 63.066406 101.882812 C 63.09375 101.902344 63.125 101.90625 63.15625 101.921875 C 63.1875 101.9375 63.214844 101.949219 63.25 101.964844 C 63.367188 102.007812 63.488281 102.035156 63.613281 102.039062 C 63.613281 102.039062 63.617188 102.039062 63.617188 102.039062 C 63.742188 102.039062 63.867188 102.007812 63.984375 101.964844 C 64.019531 101.953125 64.050781 101.9375 64.082031 101.921875 C 64.113281 101.910156 64.144531 101.902344 64.171875 101.882812 C 66.472656 100.496094 68.972656 99.425781 71.597656 98.707031 C 74.039062 98.039062 76.539062 97.679688 79.011719 97.640625 L 114.871094 97.640625 L 120.316406 102.375 C 120.519531 102.554688 120.769531 102.640625 121.019531 102.640625 C 121.320312 102.640625 121.617188 102.515625 121.828125 102.273438 L 121.9375 102.152344 C 121.945312 102.996094 122.105469 104.695312 123.082031 106.460938 C 101.628906 106.257812 85.363281 106.378906 78.996094 106.480469 Z M 78.996094 106.480469 " fill-opacity="1" fill-rule="nonzero"/></g><g clip-path="url(#cbef59ffa4)"><g clip-path="url(#17f715c64e)"><g transform="matrix(1, 0, 0, 1, 61, 0.000000000000004441)"><g clip-path="url(#f734815445)"><g clip-path="url(#182a3dc840)"><g clip-path="url(#ec2a4e257a)"><path fill="#32bfb6" d="M 0.285156 0.6875 L 7.75 0.6875 L 7.75 8.148438 L 0.285156 8.148438 Z M 0.285156 0.6875 " fill-opacity="1" fill-rule="nonzero"/></g></g></g></g></g></g></g></g></svg>