<svg xmlns="http://www.w3.org/2000/svg" xmlns:xlink="http://www.w3.org/1999/xlink" width="189" zoomAndPan="magnify" viewBox="0 0 141.75 141.750002" height="189" preserveAspectRatio="xMidYMid meet" version="1.0"><defs><clipPath id="49033b8b94"><path d="M 1 0.148438 L 131.660156 0.148438 L 131.660156 122.949219 L 1 122.949219 Z M 1 0.148438 " clip-rule="nonzero"/></clipPath><clipPath id="25e0a983b0"><rect x="0" width="133" y="0" height="124"/></clipPath></defs><g transform="matrix(1, 0, 0, 1, 3, 14)"><g clip-path="url(#25e0a983b0)"><path fill="#ffffff" d="M 100.78125 82.210938 C 99.960938 82.703125 98.816406 82.550781 97.421875 81.890625 C 97.019531 81.691406 96.597656 81.46875 96.144531 81.183594 C 95.808594 80.980469 95.457031 80.726562 95.085938 80.476562 C 94.230469 79.851562 93.324219 79.109375 92.367188 78.199219 C 91.945312 77.777344 91.492188 77.335938 91.039062 76.882812 C 90.550781 76.375 90.046875 75.851562 89.527344 75.3125 C 88.503906 74.199219 87.460938 73.003906 86.402344 71.6875 C 85.292969 70.371094 84.21875 68.972656 83.109375 67.46875 C 82.570312 66.726562 82 65.953125 81.429688 65.160156 C 80.890625 64.382812 80.320312 63.558594 79.75 62.730469 C 79.210938 61.953125 78.691406 61.195312 78.1875 60.386719 L 78.152344 60.386719 C 78.152344 60.386719 78.105469 60.300781 78.070312 60.25 L 78.105469 60.21875 L 84.839844 53.707031 C 83.648438 54.398438 81.058594 52.136719 79.078125 48.664062 C 77.0625 45.152344 76.40625 41.78125 77.566406 41.105469 L 68.359375 43.332031 C 67.992188 42.554688 67.585938 41.8125 67.25 41.070312 C 66.832031 40.195312 66.394531 39.335938 66.023438 38.472656 C 63.523438 33.058594 61.65625 28.082031 60.550781 23.984375 C 60.261719 23.039062 60.0625 22.179688 59.894531 21.351562 C 59.609375 20.070312 59.40625 18.875 59.324219 17.8125 C 59.289062 17.390625 59.273438 16.949219 59.273438 16.5625 C 59.273438 16.226562 59.273438 15.90625 59.304688 15.617188 C 59.421875 14.082031 59.910156 12.988281 60.734375 12.515625 C 65.050781 10.035156 77.5 23.613281 88.550781 42.84375 C 92.097656 49 95.085938 55.023438 97.339844 60.386719 C 102.144531 71.820312 103.738281 80.492188 100.800781 82.210938 Z M 100.78125 82.210938 " fill-opacity="1" fill-rule="nonzero"/><path fill="#d62028" d="M 97.421875 81.910156 L 42.960938 92.972656 L 36.929688 94.207031 C 36.609375 94.039062 36.324219 93.835938 36.054688 93.632812 C 34.324219 92.46875 32.695312 91.1875 31.285156 89.804688 C 29.671875 88.285156 28.246094 86.664062 27.050781 84.929688 C 23.691406 80.171875 21.792969 74.570312 21.375 68.128906 C 21.324219 67.757812 21.324219 67.386719 21.289062 66.980469 L 59.304688 15.636719 C 59.273438 15.921875 59.273438 16.242188 59.273438 16.578125 C 59.273438 16.984375 59.304688 17.40625 59.324219 17.828125 C 59.40625 18.890625 59.609375 20.089844 59.894531 21.371094 C 60.0625 22.195312 60.261719 23.058594 60.550781 24 C 61.65625 28.117188 63.539062 33.078125 66.023438 38.492188 C 66.394531 39.351562 66.816406 40.195312 67.25 41.089844 C 67.585938 41.832031 67.992188 42.574219 68.359375 43.347656 C 69.050781 44.75 69.789062 46.148438 70.578125 47.566406 C 71.316406 49 72.140625 50.417969 72.964844 51.867188 C 74.238281 54.058594 75.515625 56.203125 76.792969 58.261719 C 77.214844 58.953125 77.648438 59.59375 78.105469 60.234375 C 78.136719 60.285156 78.152344 60.351562 78.1875 60.402344 C 78.691406 61.195312 79.210938 61.972656 79.75 62.746094 C 80.320312 63.574219 80.890625 64.398438 81.429688 65.175781 C 82 65.96875 82.570312 66.746094 83.109375 67.488281 C 84.21875 69.003906 85.292969 70.40625 86.402344 71.703125 C 87.476562 73.019531 88.535156 74.21875 89.527344 75.332031 C 90.03125 75.871094 90.550781 76.394531 91.039062 76.898438 C 91.492188 77.355469 91.945312 77.777344 92.367188 78.214844 C 93.324219 79.125 94.246094 79.867188 95.085938 80.492188 C 95.457031 80.746094 95.792969 81 96.144531 81.199219 C 96.597656 81.488281 97.019531 81.707031 97.421875 81.910156 Z M 97.421875 81.910156 " fill-opacity="1" fill-rule="nonzero"/><path fill="#ffffff" d="M 36.074219 93.632812 L 24.195312 100.515625 C 22.398438 101.558594 20.148438 101.59375 18.351562 100.515625 C 16.082031 99.148438 14.167969 97.597656 12.554688 95.84375 C 10.503906 93.648438 8.992188 91.117188 7.984375 88.300781 C 7.113281 85.789062 6.640625 83.039062 6.574219 80.035156 C 6.539062 77.960938 7.699219 76.039062 9.496094 74.992188 L 21.355469 68.128906 C 21.960938 76.917969 25.253906 84.167969 31.269531 89.820312 C 32.695312 91.1875 34.308594 92.46875 36.054688 93.632812 Z M 36.074219 93.632812 " fill-opacity="1" fill-rule="nonzero"/><path fill="#d62028" d="M 12.570312 95.84375 L 9.730469 97.496094 C 7.835938 98.589844 5.296875 98.339844 3.917969 96.617188 C 3.75 96.414062 3.617188 96.195312 3.484375 95.976562 C 2.273438 93.835938 3.246094 91.070312 5.382812 89.835938 L 8.019531 88.320312 C 9.011719 91.136719 10.539062 93.667969 12.589844 95.859375 Z M 12.570312 95.84375 " fill-opacity="1" fill-rule="nonzero"/><path fill="#d3d3d3" d="M 83.34375 46.183594 C 85.34375 49.65625 86 53.046875 84.824219 53.722656 C 83.648438 54.398438 81.078125 52.136719 79.078125 48.664062 C 77.078125 45.1875 76.390625 41.796875 77.582031 41.105469 C 78.777344 40.414062 81.347656 42.691406 83.363281 46.183594 Z M 79.078125 48.664062 C 77.0625 45.171875 76.390625 41.796875 77.582031 41.105469 L 68.378906 43.332031 C 69.789062 46.117188 71.316406 48.984375 72.980469 51.882812 C 74.644531 54.785156 76.390625 57.621094 78.105469 60.265625 L 84.839844 53.738281 C 83.664062 54.429688 81.09375 52.152344 79.09375 48.679688 Z M 79.078125 48.664062 " fill-opacity="1" fill-rule="nonzero"/><path fill="#d3d3d3" d="M 57.257812 113.03125 L 50.015625 117.246094 L 42.691406 121.5 L 36.390625 110.550781 L 29.035156 97.75 L 36.074219 93.632812 C 36.359375 93.835938 36.644531 94.039062 36.945312 94.207031 L 42.976562 92.972656 C 45.882812 101.8125 50.503906 108.660156 57.273438 113.03125 Z M 57.257812 113.03125 " fill-opacity="1" fill-rule="nonzero"/><g clip-path="url(#49033b8b94)"><path fill="#000000" d="M 89.761719 42.132812 C 81.429688 27.644531 66.648438 7.488281 59.996094 11.300781 C 59.1875 11.773438 58.230469 12.851562 57.960938 15.042969 L 20.148438 66.136719 C 19.945312 66.40625 19.84375 66.746094 19.878906 67.097656 L 19.878906 67.351562 C 19.878906 67.351562 8.808594 73.777344 8.808594 73.777344 C 6.523438 75.09375 5.128906 77.507812 5.179688 80.085938 C 5.230469 82.785156 5.632812 85.316406 6.320312 87.660156 L 4.660156 88.621094 C 1.753906 90.308594 0.675781 93.9375 2.238281 96.703125 C 2.40625 96.988281 2.59375 97.277344 2.792969 97.527344 C 3.871094 98.894531 5.53125 99.605469 7.261719 99.605469 C 8.339844 99.605469 9.429688 99.316406 10.421875 98.742188 L 12.351562 97.613281 C 13.882812 99.132812 15.613281 100.546875 17.609375 101.746094 C 18.71875 102.402344 19.980469 102.742188 21.238281 102.742188 C 22.5 102.742188 23.757812 102.402344 24.902344 101.746094 L 28.480469 99.671875 L 41.449219 122.207031 C 41.71875 122.660156 42.1875 122.914062 42.675781 122.914062 C 42.910156 122.914062 43.160156 122.847656 43.378906 122.730469 L 57.960938 114.261719 C 58.398438 114.007812 58.652344 113.554688 58.667969 113.0625 C 58.667969 112.574219 58.433594 112.101562 58.011719 111.832031 C 52.167969 108.054688 47.765625 102.066406 44.859375 94.054688 L 97.320312 83.394531 C 98.160156 83.730469 98.949219 83.949219 99.65625 83.949219 C 100.363281 83.949219 100.949219 83.796875 101.503906 83.476562 C 106.425781 80.59375 101.824219 67.453125 98.632812 59.863281 C 96.296875 54.296875 93.238281 48.171875 89.777344 42.152344 Z M 9.011719 96.265625 C 7.617188 97.074219 5.902344 96.835938 5.027344 95.722656 C 4.910156 95.570312 4.808594 95.421875 4.726562 95.269531 C 3.9375 93.867188 4.558594 91.945312 6.085938 91.070312 L 7.296875 90.375 C 7.296875 90.375 7.378906 90.546875 7.429688 90.613281 C 7.800781 91.40625 8.1875 92.199219 8.640625 92.941406 C 8.65625 92.972656 8.675781 93.007812 8.691406 93.023438 C 9.160156 93.800781 9.683594 94.542969 10.253906 95.269531 C 10.304688 95.335938 10.335938 95.402344 10.386719 95.472656 L 9.027344 96.265625 Z M 23.492188 99.28125 C 22.097656 100.09375 20.417969 100.09375 19.089844 99.300781 C 16.9375 98 15.160156 96.566406 13.613281 94.878906 C 13.140625 94.375 12.6875 93.835938 12.269531 93.277344 C 11.027344 91.625 10.035156 89.804688 9.347656 87.828125 C 8.523438 85.484375 8.085938 82.855469 8.019531 80.003906 C 7.984375 78.5 8.859375 77.015625 10.21875 76.222656 L 20.164062 70.457031 C 20.25 71.148438 20.382812 71.804688 20.5 72.480469 C 20.550781 72.734375 20.585938 73.003906 20.636719 73.253906 C 20.902344 74.589844 21.257812 75.871094 21.660156 77.117188 C 21.761719 77.4375 21.878906 77.757812 21.996094 78.078125 C 22.449219 79.363281 22.953125 80.59375 23.558594 81.792969 C 23.574219 81.839844 23.609375 81.890625 23.640625 81.925781 C 24.261719 83.15625 24.984375 84.320312 25.757812 85.46875 C 25.808594 85.550781 25.859375 85.636719 25.910156 85.722656 C 25.960938 85.789062 26.027344 85.855469 26.078125 85.921875 C 26.53125 86.566406 27.019531 87.171875 27.503906 87.777344 C 27.707031 88.03125 27.890625 88.285156 28.109375 88.519531 C 28.816406 89.3125 29.539062 90.089844 30.328125 90.816406 C 30.394531 90.882812 30.496094 90.949219 30.5625 91.019531 C 31.371094 91.777344 32.242188 92.519531 33.183594 93.246094 C 33.285156 93.328125 33.367188 93.414062 33.46875 93.480469 L 23.523438 99.25 Z M 54.617188 112.929688 L 43.210938 119.558594 L 30.964844 98.269531 L 35.164062 95.824219 L 36.039062 95.320312 C 36.039062 95.320312 36.207031 95.421875 36.292969 95.453125 C 36.476562 95.554688 36.695312 95.605469 36.894531 95.605469 C 36.929688 95.605469 36.945312 95.621094 36.964844 95.621094 C 37.0625 95.621094 37.148438 95.621094 37.25 95.589844 L 42.054688 94.609375 C 44.859375 102.574219 49.09375 108.710938 54.636719 112.914062 Z M 42.691406 91.589844 L 39.046875 92.332031 L 37.214844 92.703125 C 37.214844 92.703125 37.046875 92.585938 36.964844 92.535156 C 36.945312 92.519531 36.914062 92.503906 36.894531 92.484375 C 36.894531 92.484375 36.894531 92.46875 36.878906 92.453125 C 36.15625 91.960938 35.46875 91.457031 34.796875 90.933594 C 34.679688 90.847656 34.542969 90.765625 34.445312 90.664062 C 34.292969 90.546875 34.15625 90.410156 34.007812 90.292969 C 33.402344 89.785156 32.8125 89.28125 32.257812 88.773438 C 31.519531 88.082031 30.832031 87.359375 30.175781 86.617188 C 29.941406 86.34375 29.722656 86.058594 29.503906 85.773438 C 29.085938 85.265625 28.664062 84.742188 28.296875 84.21875 C 28.210938 84.101562 28.144531 83.984375 28.058594 83.867188 C 27.4375 82.953125 26.882812 82.011719 26.363281 81.050781 C 26.210938 80.761719 26.0625 80.457031 25.910156 80.171875 C 25.390625 79.09375 24.902344 77.980469 24.515625 76.816406 C 24.449219 76.613281 24.398438 76.410156 24.332031 76.191406 C 24.011719 75.179688 23.742188 74.132812 23.507812 73.054688 C 23.421875 72.683594 23.355469 72.3125 23.289062 71.941406 C 23.054688 70.640625 22.867188 69.324219 22.785156 67.941406 C 22.769531 67.773438 22.75 67.621094 22.734375 67.453125 L 58.113281 19.648438 C 58.113281 19.648438 58.113281 19.683594 58.113281 19.683594 C 58.214844 20.308594 58.347656 20.980469 58.5 21.671875 C 58.683594 22.535156 58.886719 23.429688 59.171875 24.371094 C 60.296875 28.539062 62.210938 33.632812 64.714844 39.066406 C 65.015625 39.757812 65.351562 40.449219 65.6875 41.15625 L 65.941406 41.679688 C 66.144531 42.117188 66.359375 42.574219 66.597656 43.011719 L 67.066406 43.957031 C 68.226562 46.25 69.433594 48.476562 70.644531 50.667969 C 70.863281 51.039062 71.046875 51.410156 71.265625 51.800781 L 71.6875 52.542969 C 71.6875 52.542969 71.6875 52.574219 71.703125 52.59375 C 72.710938 54.328125 73.785156 56.101562 74.878906 57.871094 C 75.097656 58.242188 75.332031 58.648438 75.550781 59.003906 C 75.851562 59.476562 76.136719 59.914062 76.40625 60.316406 C 76.558594 60.554688 76.691406 60.773438 76.84375 61.007812 C 76.910156 61.128906 76.976562 61.246094 77.078125 61.347656 C 77.566406 62.089844 78.035156 62.816406 78.539062 63.539062 L 81.917969 68.3125 C 83.042969 69.847656 84.152344 71.28125 85.242188 72.582031 C 85.242188 72.582031 85.242188 72.597656 85.261719 72.613281 C 86.316406 73.929688 87.375 75.144531 88.433594 76.292969 L 91.339844 79.226562 C 92.097656 79.9375 92.835938 80.578125 93.644531 81.199219 L 42.640625 91.574219 Z M 83.832031 52.1875 C 83.832031 52.1875 83.664062 52.070312 83.582031 52.003906 C 83.414062 51.867188 83.210938 51.699219 83.007812 51.511719 C 82.890625 51.394531 82.773438 51.292969 82.640625 51.160156 C 82.402344 50.90625 82.152344 50.601562 81.882812 50.28125 C 81.765625 50.128906 81.648438 49.996094 81.515625 49.828125 C 81.109375 49.285156 80.707031 48.695312 80.304688 47.988281 C 79.96875 47.398438 79.683594 46.839844 79.449219 46.316406 C 79.414062 46.25 79.398438 46.199219 79.363281 46.132812 C 78.640625 44.496094 78.390625 43.230469 78.40625 42.589844 C 79.179688 43.011719 80.675781 44.410156 82.117188 46.941406 C 83.546875 49.4375 84 51.394531 84 52.289062 C 83.949219 52.253906 83.898438 52.253906 83.832031 52.203125 Z M 75.601562 43.078125 C 75.601562 43.179688 75.632812 43.296875 75.652344 43.417969 C 75.683594 43.667969 75.71875 43.921875 75.769531 44.191406 C 75.820312 44.410156 75.851562 44.632812 75.917969 44.867188 C 75.988281 45.121094 76.070312 45.390625 76.15625 45.660156 C 76.238281 45.914062 76.304688 46.148438 76.40625 46.386719 C 76.507812 46.636719 76.609375 46.890625 76.726562 47.144531 C 76.84375 47.414062 76.945312 47.667969 77.078125 47.9375 C 77.179688 48.15625 77.296875 48.375 77.414062 48.578125 C 77.566406 48.847656 77.699219 49.132812 77.851562 49.40625 C 77.953125 49.589844 78.070312 49.757812 78.1875 49.925781 C 78.339844 50.164062 78.472656 50.398438 78.625 50.636719 C 78.792969 50.890625 78.976562 51.140625 79.144531 51.394531 C 79.261719 51.546875 79.378906 51.699219 79.496094 51.851562 C 79.683594 52.085938 79.867188 52.324219 80.070312 52.558594 C 80.203125 52.710938 80.339844 52.84375 80.472656 52.996094 C 80.742188 53.285156 80.992188 53.539062 81.261719 53.773438 C 81.480469 53.976562 81.714844 54.160156 81.933594 54.328125 C 81.984375 54.363281 82.035156 54.414062 82.066406 54.449219 L 78.355469 58.039062 C 78.355469 58.039062 78.355469 58.023438 78.339844 58.007812 C 76.910156 55.746094 75.535156 53.46875 74.257812 51.242188 C 74.257812 51.226562 74.222656 51.191406 74.222656 51.175781 C 73.132812 49.269531 72.054688 47.277344 70.996094 45.273438 C 70.828125 44.953125 70.660156 44.632812 70.492188 44.308594 L 72.578125 43.804688 L 75.617188 43.0625 Z M 100.078125 81.015625 C 99.722656 81.21875 98.984375 81.082031 98.078125 80.660156 C 97.726562 80.476562 97.320312 80.273438 96.886719 79.984375 C 96.667969 79.851562 96.449219 79.699219 96.210938 79.546875 L 95.945312 79.363281 C 95.054688 78.703125 94.195312 77.996094 93.375 77.21875 L 90.570312 74.386719 C 89.59375 73.289062 88.550781 72.109375 87.476562 70.808594 C 86.386719 69.527344 85.328125 68.144531 84.253906 66.660156 L 80.910156 61.953125 C 80.554688 61.464844 80.253906 60.976562 79.933594 60.488281 L 85.109375 55.476562 L 85.832031 54.785156 C 85.832031 54.785156 85.882812 54.699219 85.914062 54.667969 C 87.679688 53.046875 86.585938 49.015625 84.570312 45.507812 C 82.554688 42 79.617188 39.03125 77.332031 39.757812 C 77.296875 39.757812 77.265625 39.757812 77.230469 39.757812 L 72.660156 40.871094 L 69.132812 41.730469 C 68.929688 41.324219 68.730469 40.9375 68.527344 40.515625 L 68.257812 39.957031 C 67.941406 39.285156 67.621094 38.625 67.320312 37.949219 C 64.867188 32.636719 63 27.710938 61.910156 23.648438 C 61.640625 22.753906 61.457031 21.925781 61.289062 21.132812 C 61.003906 19.851562 60.816406 18.722656 60.75 17.8125 C 60.71875 17.421875 60.699219 17.019531 60.699219 16.648438 C 60.699219 16.359375 60.699219 16.089844 60.71875 15.804688 C 60.800781 14.773438 61.070312 14.050781 61.421875 13.828125 C 64.109375 12.277344 75.515625 23.125 87.308594 43.636719 C 90.71875 49.539062 93.726562 55.5625 96.011719 61.027344 C 101.519531 74.132812 101.421875 80.273438 100.078125 81.066406 Z M 101.875 33.683594 L 125.726562 19.851562 L 127.15625 22.316406 L 103.300781 36.144531 Z M 96.667969 27.644531 L 93.929688 26.902344 L 101.050781 0.183594 L 103.789062 0.925781 Z M 131.777344 51.261719 L 131.035156 54.007812 L 104.425781 46.859375 L 105.167969 44.109375 Z M 131.777344 51.261719 " fill-opacity="1" fill-rule="nonzero"/></g></g></g></svg>