<svg xmlns="http://www.w3.org/2000/svg" xmlns:xlink="http://www.w3.org/1999/xlink" width="189" zoomAndPan="magnify" viewBox="0 0 141.75 141.750002" height="189" preserveAspectRatio="xMidYMid meet" version="1.0"><defs><clipPath id="9d6ee86aa2"><path d="M 0.75 0.921875 L 130.996094 0.921875 L 130.996094 138.671875 L 0.75 138.671875 Z M 0.75 0.921875 " clip-rule="nonzero"/></clipPath><clipPath id="910934b42f"><rect x="0" width="131" y="0" height="139"/></clipPath></defs><g transform="matrix(1, 0, 0, 1, 7, 1)"><g clip-path="url(#910934b42f)"><g clip-path="url(#9d6ee86aa2)"><path fill="#000000" d="M 115.796875 2.898438 L 115.796875 15.855469 L 128.597656 15.859375 C 129.136719 15.816406 129.691406 16 130.105469 16.414062 C 130.851562 17.15625 130.851562 18.367188 130.105469 19.113281 L 115.074219 34.144531 L 115.070312 34.136719 C 114.726562 34.484375 114.25 34.695312 113.726562 34.695312 L 101.554688 34.695312 L 96.515625 40.414062 C 96.914062 40.789062 97.308594 41.171875 97.699219 41.5625 C 107.972656 51.835938 114.328125 66.03125 114.328125 81.710938 C 114.328125 97.390625 107.972656 111.585938 97.699219 121.859375 C 87.425781 132.136719 73.226562 138.492188 57.550781 138.492188 C 41.871094 138.492188 27.675781 132.136719 17.398438 121.859375 C 7.125 111.585938 0.769531 97.390625 0.769531 81.710938 C 0.769531 66.03125 7.125 51.835938 17.398438 41.5625 C 27.675781 31.289062 41.871094 24.933594 57.550781 24.933594 C 71.261719 24.933594 83.839844 29.792969 93.652344 37.886719 L 98.652344 32.21875 L 97.09375 19.195312 C 97.03125 18.660156 97.195312 18.101562 97.59375 17.675781 L 112.5 1.601562 C 112.847656 1.230469 113.34375 0.996094 113.894531 0.996094 C 114.945312 0.996094 115.796875 1.851562 115.796875 2.898438 Z M 115.796875 2.898438 " fill-opacity="1" fill-rule="evenodd"/></g><path fill="#c1ff72" d="M 86.503906 52.757812 C 93.914062 60.164062 98.496094 70.402344 98.496094 81.710938 C 98.496094 93.019531 93.914062 103.257812 86.503906 110.667969 C 79.097656 118.074219 68.859375 122.65625 57.550781 122.65625 C 46.238281 122.65625 36.003906 118.074219 28.59375 110.667969 C 21.183594 103.257812 16.601562 93.019531 16.601562 81.710938 C 16.601562 70.402344 21.183594 60.164062 28.59375 52.757812 C 36.003906 45.347656 46.238281 40.765625 57.550781 40.765625 C 67.25 40.765625 76.160156 44.136719 83.175781 49.769531 L 91.125 40.753906 C 81.988281 33.253906 70.292969 28.753906 57.550781 28.753906 C 42.925781 28.753906 29.683594 34.679688 20.101562 44.261719 C 10.515625 53.847656 4.589844 67.085938 4.589844 81.710938 C 4.589844 96.335938 10.515625 109.578125 20.101562 119.160156 C 29.683594 128.742188 42.925781 134.671875 57.550781 134.671875 C 72.175781 134.671875 85.414062 128.742188 95 119.160156 C 104.582031 109.578125 110.507812 96.335938 110.507812 81.710938 C 110.507812 67.085938 104.582031 53.847656 95 44.261719 C 94.667969 43.929688 94.328125 43.601562 93.988281 43.277344 L 86.035156 52.296875 C 86.191406 52.449219 86.351562 52.601562 86.503906 52.757812 Z M 86.503906 52.757812 " fill-opacity="1" fill-rule="evenodd"/><path fill="#32bfb6" d="M 94.675781 81.710938 C 94.675781 71.457031 90.523438 62.175781 83.804688 55.457031 L 83.507812 55.164062 L 75.546875 64.191406 C 79.949219 68.714844 82.664062 74.894531 82.664062 81.710938 C 82.664062 88.652344 79.851562 94.929688 75.308594 99.472656 C 70.765625 104.015625 64.488281 106.824219 57.550781 106.824219 C 50.609375 106.824219 44.332031 104.015625 39.789062 99.472656 C 35.246094 94.929688 32.4375 88.652344 32.4375 81.710938 C 32.4375 74.773438 35.246094 68.492188 39.789062 63.949219 C 44.332031 59.410156 50.609375 56.597656 57.550781 56.597656 C 63.234375 56.597656 68.476562 58.484375 72.683594 61.664062 L 80.644531 52.636719 C 74.304688 47.597656 66.28125 44.585938 57.550781 44.585938 C 47.292969 44.585938 38.011719 48.738281 31.292969 55.457031 C 24.578125 62.175781 20.421875 71.457031 20.421875 81.710938 C 20.421875 91.96875 24.578125 101.25 31.292969 107.964844 C 38.011719 114.683594 47.292969 118.839844 57.550781 118.839844 C 67.804688 118.839844 77.085938 114.683594 83.804688 107.964844 C 90.523438 101.25 94.675781 91.96875 94.675781 81.710938 Z M 94.675781 81.710938 " fill-opacity="1" fill-rule="evenodd"/><path fill="#c1ff72" d="M 78.84375 81.710938 C 78.84375 76.035156 76.625 70.878906 73.011719 67.0625 L 61.777344 79.800781 L 68.597656 79.800781 C 69.652344 79.800781 70.507812 80.65625 70.507812 81.710938 C 70.507812 82.765625 69.652344 83.621094 68.597656 83.621094 L 59.460938 83.621094 L 59.460938 92.757812 C 59.460938 93.8125 58.605469 94.667969 57.550781 94.667969 C 56.496094 94.667969 55.640625 93.8125 55.640625 92.757812 L 55.640625 83.621094 L 46.5 83.621094 C 45.445312 83.621094 44.59375 82.765625 44.59375 81.710938 C 44.59375 80.65625 45.445312 79.800781 46.5 79.800781 L 55.640625 79.800781 L 55.640625 70.664062 C 55.640625 69.609375 56.496094 68.753906 57.550781 68.753906 C 58.605469 68.753906 59.460938 69.609375 59.460938 70.664062 L 59.460938 76.660156 L 70.148438 64.539062 C 66.621094 61.949219 62.265625 60.417969 57.550781 60.417969 C 51.664062 60.417969 46.339844 62.800781 42.488281 66.652344 C 38.636719 70.503906 36.257812 75.828125 36.257812 81.710938 C 36.257812 87.597656 38.636719 92.921875 42.488281 96.773438 C 46.339844 100.625 51.664062 103.003906 57.550781 103.003906 C 63.433594 103.003906 68.757812 100.625 72.609375 96.773438 C 76.460938 92.921875 78.84375 87.597656 78.84375 81.710938 Z M 78.84375 81.710938 " fill-opacity="1" fill-rule="evenodd"/><path fill="#ff66c4" d="M 104.910156 30.890625 L 112.929688 30.890625 L 124.15625 19.664062 L 114.816406 19.660156 Z M 104.910156 30.890625 " fill-opacity="1" fill-rule="evenodd"/><path fill="#ff66c4" d="M 102.035156 28.382812 L 111.992188 17.09375 L 111.992188 7.753906 L 100.984375 19.621094 Z M 102.035156 28.382812 " fill-opacity="1" fill-rule="evenodd"/></g></g></svg>