<svg xmlns="http://www.w3.org/2000/svg" xmlns:xlink="http://www.w3.org/1999/xlink" width="189" zoomAndPan="magnify" viewBox="0 0 141.75 141.750002" height="189" preserveAspectRatio="xMidYMid meet" version="1.0"><defs><clipPath id="a3b23917cd"><path d="M 28.542969 65.75 L 86.949219 65.75 L 86.949219 73.15625 L 28.542969 73.15625 Z M 28.542969 65.75 " clip-rule="nonzero"/></clipPath><clipPath id="b4fb41cd62"><path d="M 0.542969 0.75 L 58.949219 0.75 L 58.949219 8.15625 L 0.542969 8.15625 Z M 0.542969 0.75 " clip-rule="nonzero"/></clipPath><clipPath id="e62b04c4fd"><rect x="0" width="59" y="0" height="9"/></clipPath><clipPath id="a413aa44a8"><path d="M 28.546875 73.15625 L 64.980469 73.15625 L 64.980469 80.5625 L 28.546875 80.5625 Z M 28.546875 73.15625 " clip-rule="nonzero"/></clipPath><clipPath id="81d7f184cf"><path d="M 0.546875 0.15625 L 36.980469 0.15625 L 36.980469 7.5625 L 0.546875 7.5625 Z M 0.546875 0.15625 " clip-rule="nonzero"/></clipPath><clipPath id="a27d6b3c2d"><rect x="0" width="37" y="0" height="8"/></clipPath><clipPath id="f48865b09b"><path d="M 1.46875 1 L 105.550781 1 L 105.550781 130.363281 L 1.46875 130.363281 Z M 1.46875 1 " clip-rule="nonzero"/></clipPath><clipPath id="2b168bac0f"><path d="M 44.792969 89.097656 L 74.097656 89.097656 L 74.097656 116.773438 L 44.792969 116.773438 Z M 44.792969 89.097656 " clip-rule="nonzero"/></clipPath><clipPath id="2e91085682"><path d="M 0.792969 0.0976562 L 30.097656 0.0976562 L 30.097656 27.773438 L 0.792969 27.773438 Z M 0.792969 0.0976562 " clip-rule="nonzero"/></clipPath><clipPath id="5a1884c611"><rect x="0" width="31" y="0" height="28"/></clipPath><clipPath id="9363eb81e1"><rect x="0" width="107" y="0" height="131"/></clipPath></defs><g transform="matrix(1, 0, 0, 1, 22, 5)"><g clip-path="url(#9363eb81e1)"><g clip-path="url(#a3b23917cd)"><g transform="matrix(1, 0, 0, 1, 28, 65)"><g clip-path="url(#e62b04c4fd)"><g clip-path="url(#b4fb41cd62)"><path fill="#c1ff72" d="M 0.542969 8.15625 L 0.542969 0.75 L 58.960938 0.75 L 58.960938 8.15625 Z M 0.542969 8.15625 " fill-opacity="1" fill-rule="nonzero"/></g></g></g></g><g clip-path="url(#a413aa44a8)"><g transform="matrix(1, 0, 0, 1, 28, 73)"><g clip-path="url(#a27d6b3c2d)"><g clip-path="url(#81d7f184cf)"><path fill="#c1ff72" d="M 0.546875 7.5625 L 0.546875 0.15625 L 36.972656 0.15625 L 36.972656 7.5625 Z M 0.546875 7.5625 " fill-opacity="1" fill-rule="nonzero"/></g></g></g></g><path fill="#32bfb6" d="M 95.015625 119.992188 L 95.015625 124.425781 C 95.015625 126.789062 93.109375 128.691406 90.765625 128.691406 L 6.929688 128.691406 C 4.585938 128.691406 2.679688 126.789062 2.679688 124.425781 L 2.679688 15.519531 C 2.679688 13.175781 4.585938 11.269531 6.929688 11.269531 L 11.363281 11.269531 L 11.363281 115.746094 C 11.363281 118.089844 13.265625 119.992188 15.609375 119.992188 Z M 70.1875 52.382812 C 70.1875 45.394531 64.523438 39.730469 57.539062 39.730469 C 50.550781 39.730469 44.886719 45.394531 44.886719 52.382812 L 44.886719 55.898438 L 70.1875 55.898438 Z M 57.539062 16.128906 C 52.722656 16.128906 48.820312 20.035156 48.820312 24.847656 C 48.820312 29.660156 52.722656 33.5625 57.539062 33.5625 C 62.351562 33.5625 66.253906 29.660156 66.253906 24.847656 C 66.253906 20.035156 62.351562 16.128906 57.539062 16.128906 Z M 57.539062 16.128906 " fill-opacity="1" fill-rule="nonzero"/><g clip-path="url(#f48865b09b)"><path fill="#000000" d="M 99.671875 1.183594 L 15.816406 1.183594 C 12.679688 1.183594 10.128906 3.734375 10.128906 6.871094 L 10.128906 9.867188 L 7.136719 9.867188 C 4 9.867188 1.449219 12.417969 1.449219 15.550781 L 1.449219 124.460938 C 1.449219 127.605469 4 130.164062 7.136719 130.164062 L 90.972656 130.164062 C 94.109375 130.164062 96.660156 127.605469 96.660156 124.460938 L 96.660156 121.464844 L 99.671875 121.464844 C 102.808594 121.464844 105.359375 118.914062 105.359375 115.777344 L 105.359375 6.871094 C 105.359375 3.734375 102.808594 1.183594 99.671875 1.183594 Z M 93.785156 124.460938 C 93.785156 126.019531 92.523438 127.289062 90.972656 127.289062 L 7.136719 127.289062 C 5.585938 127.289062 4.324219 126.019531 4.324219 124.460938 L 4.324219 15.550781 C 4.324219 14.003906 5.585938 12.742188 7.136719 12.742188 L 10.128906 12.742188 L 10.128906 115.777344 C 10.128906 118.914062 12.679688 121.464844 15.816406 121.464844 L 93.785156 121.464844 Z M 102.484375 115.777344 C 102.484375 117.328125 101.222656 118.589844 99.671875 118.589844 L 15.816406 118.589844 C 14.269531 118.589844 13.007812 117.328125 13.007812 115.777344 L 13.007812 6.871094 C 13.007812 5.320312 14.269531 4.058594 15.816406 4.058594 L 99.671875 4.058594 C 101.222656 4.058594 102.484375 5.320312 102.484375 6.871094 Z M 18.761719 80.191406 L 18.761719 96.257812 C 18.761719 97.054688 18.117188 97.699219 17.324219 97.699219 C 16.53125 97.699219 15.886719 97.054688 15.886719 96.257812 L 15.886719 80.191406 C 15.886719 79.398438 16.53125 78.753906 17.324219 78.753906 C 18.117188 78.753906 18.761719 79.398438 18.761719 80.191406 Z M 18.761719 100.804688 L 18.761719 107.328125 C 18.761719 108.125 18.117188 108.765625 17.324219 108.765625 C 16.53125 108.765625 15.886719 108.125 15.886719 107.328125 L 15.886719 100.804688 C 15.886719 100.007812 16.53125 99.367188 17.324219 99.367188 C 18.117188 99.367188 18.761719 100.007812 18.761719 100.804688 Z M 37.5625 57.375 L 77.925781 57.375 C 78.722656 57.375 79.367188 56.730469 79.367188 55.933594 L 79.367188 11.257812 C 79.367188 10.464844 78.722656 9.820312 77.925781 9.820312 L 37.5625 9.820312 C 36.769531 9.820312 36.125 10.464844 36.125 11.257812 L 36.125 55.933594 C 36.125 56.730469 36.769531 57.375 37.5625 57.375 Z M 46.53125 54.496094 L 46.53125 52.417969 C 46.53125 46.234375 51.5625 41.203125 57.746094 41.203125 C 63.925781 41.203125 68.957031 46.234375 68.957031 52.417969 L 68.957031 54.496094 Z M 39.003906 12.699219 L 76.488281 12.699219 L 76.488281 54.496094 L 71.835938 54.496094 L 71.835938 52.417969 C 71.835938 44.648438 65.515625 38.328125 57.746094 38.328125 C 49.976562 38.328125 43.65625 44.648438 43.65625 52.417969 L 43.65625 54.496094 L 39.003906 54.496094 Z M 57.746094 35.035156 C 63.34375 35.035156 67.898438 30.480469 67.898438 24.878906 C 67.898438 19.277344 63.34375 14.722656 57.746094 14.722656 C 52.144531 14.722656 47.589844 19.277344 47.589844 24.878906 C 47.589844 30.480469 52.144531 35.035156 57.746094 35.035156 Z M 57.746094 17.601562 C 61.757812 17.601562 65.023438 20.867188 65.023438 24.878906 C 65.023438 28.894531 61.757812 32.160156 57.746094 32.160156 C 53.730469 32.160156 50.46875 28.894531 50.46875 24.878906 C 50.46875 20.867188 53.730469 17.601562 57.746094 17.601562 Z M 87.667969 65.675781 C 87.667969 66.46875 87.023438 67.113281 86.226562 67.113281 L 29.261719 67.113281 C 28.46875 67.113281 27.824219 66.46875 27.824219 65.675781 C 27.824219 64.878906 28.46875 64.234375 29.261719 64.234375 L 86.230469 64.234375 C 87.023438 64.234375 87.667969 64.878906 87.667969 65.675781 Z M 27.820312 72.933594 C 27.820312 72.136719 28.464844 71.496094 29.261719 71.496094 L 63.695312 71.496094 C 64.488281 71.496094 65.132812 72.136719 65.132812 72.933594 C 65.132812 73.730469 64.488281 74.371094 63.695312 74.371094 L 29.261719 74.371094 C 28.464844 74.371094 27.820312 73.730469 27.820312 72.933594 Z M 53.402344 81.632812 L 29.261719 81.632812 C 28.464844 81.632812 27.820312 80.988281 27.820312 80.191406 C 27.820312 79.398438 28.464844 78.753906 29.261719 78.753906 L 53.402344 78.753906 C 54.195312 78.753906 54.839844 79.398438 54.839844 80.191406 C 54.839844 80.988281 54.195312 81.632812 53.402344 81.632812 Z M 68.773438 95.101562 L 59.777344 104.09375 L 68.773438 113.089844 C 69.335938 113.652344 69.335938 114.558594 68.773438 115.121094 C 68.492188 115.402344 68.125 115.542969 67.757812 115.542969 C 67.386719 115.542969 67.019531 115.402344 66.738281 115.121094 L 57.746094 106.128906 L 48.75 115.121094 C 48.46875 115.402344 48.101562 115.542969 47.734375 115.542969 C 47.363281 115.542969 46.996094 115.402344 46.714844 115.121094 C 46.152344 114.558594 46.152344 113.652344 46.714844 113.089844 L 55.710938 104.09375 L 46.714844 95.101562 C 46.152344 94.539062 46.152344 93.628906 46.714844 93.066406 C 47.277344 92.503906 48.1875 92.503906 48.75 93.066406 L 57.746094 102.058594 L 66.738281 93.066406 C 67.300781 92.503906 68.210938 92.503906 68.773438 93.066406 C 69.335938 93.628906 69.335938 94.539062 68.773438 95.101562 Z M 68.773438 95.101562 " fill-opacity="1" fill-rule="nonzero"/></g><g clip-path="url(#2b168bac0f)"><g transform="matrix(1, 0, 0, 1, 44, 89)"><g clip-path="url(#5a1884c611)"><g clip-path="url(#2e91085682)"><path fill="#ffffff" d="M 0.792969 0.0976562 L 30.089844 0.0976562 L 30.089844 27.773438 L 0.792969 27.773438 Z M 0.792969 0.0976562 " fill-opacity="1" fill-rule="nonzero"/></g></g></g></g></g></g></svg>